<svg xmlns="http://www.w3.org/2000/svg" xmlns:xlink="http://www.w3.org/1999/xlink" width="1080" zoomAndPan="magnify" viewBox="0 0 810 1012.49997" height="1350" preserveAspectRatio="xMidYMid meet" version="1.0"><path fill="#3a1b4e" d="M 389.847656 378.523438 C 391.441406 378.523438 392.75 379.828125 392.75 381.425781 C 392.75 383.023438 391.441406 384.328125 389.847656 384.328125 C 388.25 384.328125 386.945312 383.023438 386.945312 381.425781 C 386.945312 379.828125 388.25 378.523438 389.847656 378.523438 Z M 331.808594 688.3125 C 327.421875 691.050781 326.523438 691.03125 327.605469 688.207031 C 328.363281 686.230469 326.359375 682.976562 323.148438 680.96875 C 319.699219 678.816406 317.3125 678.523438 317.3125 680.25 C 317.3125 681.859375 318.777344 683.175781 320.566406 683.175781 C 322.898438 683.175781 322.941406 684.242188 320.714844 686.921875 C 318.40625 689.703125 319.0625 691.578125 323.261719 694.199219 C 326.371094 696.144531 328.914062 699.1875 328.914062 700.964844 C 328.914062 703.265625 327.84375 703.308594 325.191406 701.105469 C 320.785156 697.449219 312.785156 701.417969 315.546875 705.886719 C 316.585938 707.5625 315.121094 710.28125 312.292969 711.925781 C 307.4375 714.75 307.433594 714.921875 312.234375 715.003906 C 315.027344 715.054688 317.476562 713.785156 317.675781 712.191406 C 317.875 710.597656 318.203125 708.09375 318.402344 706.628906 C 319.199219 700.789062 323.117188 700.011719 323.117188 705.699219 C 323.117188 712.660156 315.238281 721.75 311.308594 719.320312 C 309.859375 718.425781 309.539062 719.945312 310.597656 722.699219 C 312.070312 726.535156 311.382812 727.269531 307.660156 725.84375 C 304.105469 724.476562 302.804688 725.554688 302.804688 729.863281 C 302.804688 733.097656 301.5 734.9375 299.90625 733.953125 C 298.308594 732.964844 297.003906 734.195312 297.003906 736.683594 C 297.003906 739.171875 295.226562 741.207031 293.054688 741.207031 C 290.40625 741.207031 289.558594 743.59375 290.488281 748.457031 C 291.644531 754.492188 290.238281 756.421875 282.109375 759.949219 C 276.183594 762.523438 274.417969 764.234375 277.625 764.304688 C 282.46875 764.40625 282.523438 764.804688 278.269531 769.058594 C 275.035156 772.292969 272.558594 772.808594 270.085938 770.761719 C 267.4375 768.570312 266.375 770.097656 265.890625 776.78125 C 265.292969 785.046875 261.246094 790.375 255.488281 790.484375 C 254.195312 790.511719 254.121094 788.898438 255.320312 786.902344 C 257.035156 784.042969 256.578125 784.019531 253.160156 786.78125 C 250.777344 788.710938 246.105469 789.574219 242.777344 788.703125 C 239.449219 787.835938 235.726562 788.746094 234.5 790.726562 C 233.058594 793.058594 233.464844 793.59375 235.652344 792.242188 C 240.414062 789.296875 249.710938 792.78125 251.828125 798.304688 C 253.257812 802.023438 252.796875 802.277344 249.546875 799.582031 C 246.8125 797.308594 243.1875 797.078125 238.453125 798.878906 C 230.394531 801.945312 215.042969 799.84375 217.417969 796 C 218.292969 794.585938 216.722656 793.429688 213.929688 793.429688 C 209.34375 793.429688 209.398438 793.015625 214.484375 789.171875 C 218.789062 785.914062 219.089844 784.878906 215.761719 784.773438 C 211.894531 784.652344 211.894531 784.324219 215.761719 781.824219 C 219.296875 779.542969 219.351562 779.003906 216.042969 778.96875 C 213.382812 778.933594 214.257812 776.941406 218.5625 773.207031 C 222.433594 769.851562 224.453125 765.660156 223.453125 763.050781 C 222.515625 760.609375 222.890625 758.613281 224.285156 758.613281 C 225.683594 758.613281 226.226562 756.320312 225.492188 753.519531 C 224.699219 750.476562 227.632812 744.871094 232.773438 739.613281 C 237.539062 734.738281 242.289062 725.996094 243.40625 720.046875 C 244.515625 714.128906 246.660156 709.289062 248.171875 709.289062 C 249.683594 709.289062 250.1875 708.101562 249.292969 706.648438 C 247.085938 703.082031 250.59375 694.449219 253.515625 696.253906 C 254.792969 697.042969 255.160156 695.078125 254.324219 691.882812 C 253.488281 688.691406 254.195312 686.078125 255.898438 686.078125 C 257.597656 686.078125 261.253906 678.886719 264.027344 670.09375 C 268.328125 656.453125 269.941406 654.324219 275.054688 655.5625 C 278.351562 656.355469 279.414062 656.261719 277.417969 655.34375 C 271.839844 652.78125 273.117188 644.375 279.707031 640.257812 C 282.960938 638.226562 284.84375 635.300781 283.886719 633.757812 C 282.933594 632.214844 283.394531 630.949219 284.917969 630.949219 C 288.21875 630.949219 290.847656 624.660156 292.875 611.914062 C 294.105469 604.175781 293.453125 602.609375 289.15625 602.960938 C 286.289062 603.195312 282.355469 605.34375 280.414062 607.738281 C 277.351562 611.507812 276.867188 611.335938 276.785156 606.457031 C 276.699219 601.175781 276.460938 601.140625 272.988281 605.894531 C 270.949219 608.683594 267.347656 611.246094 264.988281 611.59375 C 262.628906 611.941406 257.554688 614.425781 253.714844 617.113281 C 249.875 619.804688 245.640625 621.328125 244.304688 620.503906 C 242.96875 619.675781 241.875 620.207031 241.875 621.679688 C 241.875 623.972656 237.402344 624.242188 226.289062 622.617188 C 224.894531 622.410156 225.546875 620.078125 227.738281 617.425781 C 231.378906 613.023438 231.167969 612.953125 225.257812 616.632812 L 218.792969 620.660156 L 224.925781 623.941406 C 228.945312 626.09375 229.921875 627.921875 227.761719 629.257812 C 225.949219 630.375 223.300781 630.570312 221.871094 629.6875 C 220.441406 628.804688 218.523438 630.03125 217.609375 632.417969 C 215.105469 638.945312 207.058594 637.695312 207.058594 630.777344 C 207.058594 627.472656 205.742188 625.617188 204.109375 626.628906 C 202.488281 627.628906 202 629.804688 203.023438 631.460938 C 204.210938 633.386719 202.65625 633.765625 198.71875 632.515625 C 194.921875 631.3125 192.550781 631.816406 192.550781 633.828125 C 192.550781 635.625 193.53125 636.503906 194.726562 635.777344 C 195.925781 635.054688 198.585938 636.28125 200.644531 638.507812 C 203.765625 641.886719 203.226562 642.554688 197.378906 642.554688 C 183.105469 642.554688 172.625 645.980469 174.214844 650.128906 C 175.605469 653.75 170.230469 655.75 162.621094 654.441406 C 161.320312 654.21875 156.605469 656.636719 152.140625 659.816406 C 147.675781 662.996094 143.402344 664.976562 142.644531 664.21875 C 141.886719 663.460938 137 664.328125 131.78125 666.148438 C 124.15625 668.804688 121.792969 668.664062 119.75 665.433594 C 117.882812 662.484375 117.140625 663.347656 116.972656 668.667969 C 116.753906 675.652344 116.652344 675.691406 114.230469 669.691406 C 111.347656 662.539062 105.507812 658.011719 105.507812 662.925781 C 105.507812 665.085938 102.5 665.566406 96.804688 664.316406 C 86.621094 662.078125 85.160156 664.839844 94.628906 668.429688 C 98.414062 669.863281 102.570312 669.765625 104.523438 668.195312 C 106.644531 666.488281 108.589844 666.613281 109.773438 668.527344 C 110.808594 670.203125 109.617188 671.570312 107.128906 671.570312 C 104.640625 671.570312 102.605469 672.875 102.605469 674.472656 C 102.605469 677.734375 96.257812 677.144531 93.667969 673.644531 C 92.742188 672.390625 88.261719 670.6875 83.714844 669.863281 C 79.167969 669.039062 74.378906 667.703125 73.070312 666.894531 C 71.761719 666.085938 70.691406 668.261719 70.691406 671.726562 C 70.691406 677.289062 69.578125 677.8125 61.261719 676.164062 C 56.074219 675.136719 49.546875 674.253906 46.753906 674.203125 C 43.960938 674.15625 41.675781 672.734375 41.675781 671.050781 C 41.675781 669.367188 39.167969 668.648438 36.105469 669.449219 C 31.929688 670.539062 30.054688 669 28.628906 663.308594 C 26.347656 654.222656 32.121094 648.855469 59.675781 634.460938 C 78.882812 624.425781 84.640625 621.109375 97.238281 612.816406 C 101.484375 610.023438 107.035156 607.738281 109.582031 607.738281 C 112.128906 607.738281 114.214844 606.433594 114.214844 604.835938 C 114.214844 600.671875 122.121094 601.25 124.097656 605.5625 C 125.015625 607.554688 125.035156 606.25 124.148438 602.660156 C 122.988281 597.980469 123.816406 596.132812 127.078125 596.132812 C 129.578125 596.132812 131.625 597.4375 131.625 599.035156 C 131.625 600.628906 133.007812 601.933594 134.699219 601.933594 C 136.386719 601.933594 136.972656 600.644531 136 599.070312 C 133.082031 594.351562 140.980469 588.355469 148.273438 589.75 C 152.015625 590.46875 154.867188 589.910156 154.613281 588.515625 C 153.554688 582.730469 155.132812 581.582031 160.320312 584.355469 C 164.78125 586.742188 166.097656 586.152344 167.398438 581.179688 C 168.402344 577.335938 170.558594 575.667969 173.203125 576.683594 C 175.519531 577.570312 179.839844 576.101562 182.808594 573.421875 C 185.773438 570.742188 191.140625 568.96875 194.730469 569.484375 C 198.667969 570.050781 201.269531 568.902344 201.28125 566.59375 C 201.3125 561.640625 215.746094 554.507812 215.808594 559.410156 C 215.835938 561.445312 216.863281 561.175781 218.414062 558.722656 C 219.824219 556.5 223.433594 555.320312 226.4375 556.109375 C 231.914062 557.539062 238.976562 552.457031 238.976562 547.082031 C 238.976562 545.230469 242.128906 545.308594 247.832031 547.292969 C 252.699219 548.992188 257.488281 549.574219 258.46875 548.59375 C 259.449219 547.609375 258.078125 546.808594 255.417969 546.808594 C 252.757812 546.808594 250.582031 545.542969 250.582031 543.996094 C 250.582031 542.453125 252.757812 542.019531 255.410156 543.039062 C 258.65625 544.285156 259.550781 543.78125 258.140625 541.496094 C 256.210938 538.371094 261.457031 536.902344 273.039062 537.320312 C 275.015625 537.390625 276.003906 536.425781 275.230469 535.179688 C 274.460938 533.929688 275.738281 532.175781 278.070312 531.28125 C 282.90625 529.425781 286.636719 533.753906 283.949219 538.101562 C 282.964844 539.699219 284.160156 541.003906 286.609375 541.003906 C 290.054688 541.003906 290.644531 538.9375 289.226562 531.84375 C 287.246094 521.9375 285.992188 522.207031 305.710938 528.285156 C 309.976562 529.601562 311.515625 528.738281 311.515625 525.03125 C 311.515625 520.839844 310.765625 520.605469 307.09375 523.652344 C 303.402344 526.71875 302.976562 526.539062 304.503906 522.554688 C 305.507812 519.9375 308.027344 517.792969 310.101562 517.792969 C 312.542969 517.792969 313.289062 515.574219 312.226562 511.5 C 310.929688 506.550781 311.589844 505.59375 315.304688 507.023438 C 317.90625 508.019531 320.929688 507.382812 322.023438 505.613281 C 323.230469 503.660156 322.695312 503.207031 320.667969 504.460938 C 318.824219 505.597656 317.316406 505.117188 317.316406 503.390625 C 317.316406 501.519531 314.550781 502.0625 310.472656 504.734375 C 301.296875 510.746094 293.0625 507.757812 297.246094 499.933594 C 298.917969 496.8125 299.632812 492.699219 298.839844 490.792969 C 298.019531 488.816406 296.5625 490.0625 295.457031 493.6875 C 293.828125 499.019531 291.882812 499.835938 283.34375 498.742188 C 269.105469 496.917969 266.085938 494.449219 272.425781 489.808594 C 276.941406 486.507812 278.535156 486.644531 283.023438 490.703125 C 287.253906 494.535156 288.300781 494.667969 288.300781 491.378906 C 288.300781 485.714844 278.507812 480.0625 273.773438 482.988281 C 271.5 484.394531 267.308594 483.664062 263.5625 481.207031 C 260.0625 478.914062 254.734375 477.847656 251.71875 478.832031 C 247.246094 480.289062 247.035156 480.054688 250.570312 477.5625 C 254.320312 474.914062 254.125 473.910156 249.117188 470.125 C 242.46875 465.101562 237.796875 464.210938 240.429688 468.46875 C 243.253906 473.039062 234.878906 471.851562 228.652344 466.804688 C 225.554688 464.292969 224.851562 463.1875 227.09375 464.351562 C 229.867188 465.789062 230.46875 465.328125 228.976562 462.917969 C 227.773438 460.964844 224.957031 460.070312 222.726562 460.925781 C 220.492188 461.78125 218.667969 461.21875 218.667969 459.671875 C 218.667969 458.128906 220.625 456.863281 223.019531 456.863281 C 225.414062 456.863281 227.371094 454.894531 227.371094 452.488281 C 227.371094 448.824219 226.410156 448.703125 221.480469 451.761719 C 216.660156 454.746094 215.128906 454.675781 213.070312 451.363281 C 211.679688 449.132812 208.460938 448.113281 205.902344 449.097656 C 202.613281 450.359375 201.257812 449.210938 201.257812 445.167969 C 201.257812 441.304688 199.292969 439.453125 195.183594 439.453125 C 191.621094 439.453125 188.503906 437.136719 187.644531 433.851562 C 186.839844 430.769531 184.164062 427.476562 181.703125 426.53125 C 177.960938 425.097656 177.839844 425.550781 180.953125 429.304688 C 183 431.773438 183.78125 434.6875 182.683594 435.785156 C 181.589844 436.878906 177.8125 434.417969 174.292969 430.308594 C 170.773438 426.203125 163.648438 421.199219 158.460938 419.191406 C 153.277344 417.183594 149.03125 413.664062 149.03125 411.367188 C 149.03125 409.074219 147.734375 408 146.148438 408.980469 C 144.5625 409.960938 138.890625 407.425781 133.542969 403.347656 C 128.195312 399.269531 122.84375 395.933594 121.644531 395.933594 C 116.980469 395.933594 102.632812 383.734375 104.242188 381.132812 C 105.175781 379.617188 104.375 378.738281 102.460938 379.179688 C 100.550781 379.617188 98.316406 378.136719 97.5 375.886719 C 96.492188 373.113281 97.476562 372.355469 100.542969 373.535156 C 103.421875 374.640625 106.785156 372.660156 109.765625 368.109375 C 113.980469 361.683594 114.914062 361.402344 118.898438 365.382812 C 123.679688 370.167969 128.722656 371.253906 128.722656 367.5 C 128.722656 359.203125 113.136719 355.082031 110.246094 362.609375 C 107.785156 369.03125 93.550781 373.9375 90.710938 369.347656 C 89.488281 367.367188 89.253906 364.503906 90.191406 362.984375 C 91.132812 361.460938 90.625 361.007812 89.066406 361.96875 C 87.511719 362.933594 84.058594 361.175781 81.394531 358.066406 C 76.8125 352.714844 76.886719 352.410156 82.777344 352.410156 C 88.40625 352.410156 88.589844 351.925781 84.710938 347.332031 C 80.320312 342.136719 80.738281 330.796875 85.21875 333.5625 C 86.585938 334.40625 88.519531 333.769531 89.523438 332.148438 C 90.523438 330.527344 92.898438 329.21875 94.800781 329.246094 C 97.160156 329.277344 97.027344 330.070312 94.386719 331.742188 C 91.269531 333.71875 91.410156 334.539062 95.113281 335.957031 C 98.171875 337.132812 99.785156 336.054688 99.9375 332.734375 C 100.0625 329.984375 100.796875 329.304688 101.574219 331.214844 C 102.347656 333.117188 104.796875 333.980469 107.011719 333.132812 C 109.222656 332.28125 112.730469 332.648438 114.800781 333.945312 C 116.871094 335.238281 119.871094 336.460938 121.46875 336.660156 C 123.0625 336.859375 125.910156 337.21875 127.789062 337.460938 C 129.667969 337.707031 133.261719 339.957031 135.769531 342.464844 C 138.277344 344.972656 140.328125 345.625 140.328125 343.914062 C 140.328125 339.449219 144.996094 340.085938 150.171875 345.261719 C 152.621094 347.710938 155 349.578125 155.457031 349.410156 C 155.914062 349.242188 159.960938 350.5 164.453125 352.207031 C 168.945312 353.914062 174.316406 355.3125 176.386719 355.3125 C 181.722656 355.3125 201.484375 371.53125 199.078125 373.933594 C 197.980469 375.03125 199.328125 375.070312 202.074219 374.015625 C 205.515625 372.695312 207.0625 373.546875 207.0625 376.765625 C 207.0625 379.332031 209.019531 381.589844 211.414062 381.789062 C 216.796875 382.238281 218.773438 382.789062 225.195312 385.617188 C 231.046875 388.191406 232.011719 397.652344 226.644531 399.816406 C 224.367188 400.734375 224.234375 401.363281 226.289062 401.507812 C 228.089844 401.636719 231.074219 399.914062 232.925781 397.683594 C 237.449219 392.234375 248.164062 395.246094 247.074219 401.664062 C 246.613281 404.40625 247.535156 406.523438 249.132812 406.371094 C 250.726562 406.214844 251.664062 404.988281 251.21875 403.640625 C 249.4375 398.300781 258.019531 403.96875 260.699219 409.90625 C 262.453125 413.78125 266.183594 416.246094 270.300781 416.246094 C 274.488281 416.246094 276.285156 417.460938 275.054688 419.457031 C 273.726562 421.601562 275.046875 422.042969 279.019531 420.78125 C 282.667969 419.621094 285.894531 420.410156 287.359375 422.816406 C 288.675781 424.976562 293.996094 428.453125 299.183594 430.550781 C 304.367188 432.644531 308.613281 435.246094 308.613281 436.332031 C 308.613281 437.417969 313.507812 438.351562 319.492188 438.410156 C 325.476562 438.46875 328.085938 437.976562 325.296875 437.320312 C 322.503906 436.664062 320.21875 434.953125 320.21875 433.511719 C 320.21875 432.035156 323.5625 432.167969 327.902344 433.816406 C 334.785156 436.433594 335.183594 436.25 331.714844 432.074219 C 328.472656 428.164062 328.519531 426.972656 332.007812 424.726562 C 335.605469 422.414062 335.582031 421.65625 331.824219 419.191406 C 329.429688 417.621094 326.164062 416.335938 324.570312 416.335938 C 322.972656 416.335938 323.46875 417.472656 325.667969 418.867188 C 329.84375 421.511719 327.800781 427.851562 322.777344 427.851562 C 321.179688 427.851562 320.679688 426.546875 321.667969 424.949219 C 322.652344 423.355469 322.359375 422.046875 321.015625 422.046875 C 319.671875 422.046875 318.613281 417.804688 318.667969 412.617188 C 318.734375 406.660156 320.101562 403.457031 322.394531 403.914062 C 324.386719 404.3125 326.019531 402.027344 326.019531 398.835938 C 326.019531 395.261719 327.96875 393.015625 331.097656 392.988281 C 335.4375 392.949219 335.542969 392.535156 331.824219 390.132812 C 328.238281 387.816406 328.195312 387.3125 331.582031 387.273438 C 338.011719 387.210938 332.589844 383.417969 325.292969 382.878906 C 321.703125 382.613281 319.417969 381.199219 320.21875 379.738281 C 321.015625 378.273438 322.746094 377.433594 324.0625 377.875 C 325.378906 378.3125 325.652344 376.136719 324.671875 373.039062 C 323.6875 369.941406 324.242188 366.570312 325.902344 365.542969 C 329.863281 363.09375 329.816406 349.511719 325.851562 349.511719 C 324.164062 349.511719 323.515625 350.699219 324.410156 352.152344 C 326.5625 355.628906 323.257812 364.019531 319.738281 364.019531 C 318.21875 364.019531 317.976562 362.398438 319.203125 360.417969 C 322.726562 354.714844 322.613281 338.132812 319.050781 338.777344 C 317.300781 339.097656 315.863281 335.441406 315.855469 330.652344 C 315.851562 325.867188 314.9375 320.542969 313.824219 318.828125 C 310.726562 314.050781 313.683594 285.027344 317.503906 282.664062 C 320 281.121094 319.914062 280.257812 317.175781 279.347656 C 313.695312 278.1875 310.820312 270.414062 311.464844 263.917969 C 311.878906 259.738281 311.632812 232.394531 310.964844 208.632812 C 310.507812 192.328125 311.539062 186.589844 316.03125 180.421875 C 319.132812 176.164062 323.179688 173.207031 325.023438 173.855469 C 327.058594 174.570312 328.078125 172.347656 327.621094 168.1875 C 326.558594 158.507812 329.363281 155.289062 339.9375 154.058594 C 353.683594 152.457031 357.128906 158.539062 348.96875 170 L 342.355469 179.285156 L 348.863281 177.582031 C 353.746094 176.308594 354.640625 176.761719 352.449219 179.398438 C 350.394531 181.878906 351.113281 183.90625 354.886719 186.261719 C 358.839844 188.734375 359.980469 192.304688 359.242188 199.925781 C 358.511719 207.457031 359.375 210.242188 362.441406 210.242188 C 364.753906 210.242188 366.644531 211.546875 366.644531 213.144531 C 366.644531 214.738281 365.246094 216.046875 363.535156 216.046875 C 361.824219 216.046875 362.523438 218.144531 365.085938 220.707031 C 368.664062 224.285156 368.972656 226.296875 366.414062 229.378906 C 364.582031 231.585938 361.601562 232.527344 359.785156 231.472656 C 357.972656 230.417969 358.773438 232.167969 361.566406 235.359375 C 364.359375 238.554688 366.625 242.367188 366.597656 243.839844 C 366.574219 245.308594 365.289062 244.550781 363.742188 242.160156 C 361.46875 238.640625 360.921875 239.054688 360.886719 244.335938 C 360.859375 248.414062 362.589844 250.863281 365.503906 250.863281 C 368.527344 250.863281 369.558594 252.449219 368.4375 255.367188 C 367.488281 257.84375 367.910156 259.125 369.378906 258.21875 C 370.847656 257.3125 372.886719 257.929688 373.914062 259.59375 C 374.941406 261.253906 374.703125 262.425781 373.386719 262.199219 C 367.539062 261.179688 366.203125 262.792969 369.546875 266.820312 C 372.503906 270.386719 372.304688 271.171875 368.449219 271.171875 C 365.863281 271.171875 363.742188 272.480469 363.742188 274.074219 C 363.742188 275.671875 365.136719 276.976562 366.839844 276.976562 C 368.613281 276.976562 369.152344 279.449219 368.101562 282.761719 C 366.84375 286.722656 367.464844 288.242188 370.082031 287.589844 C 372.179688 287.0625 372.917969 287.179688 371.722656 287.847656 C 370.523438 288.515625 369.546875 291.164062 369.546875 293.730469 C 369.546875 297.578125 368.796875 297.40625 365.285156 292.761719 C 361.667969 287.984375 361.011719 287.851562 360.933594 291.898438 C 360.816406 297.886719 367.785156 300.789062 372.046875 296.527344 C 373.808594 294.761719 376.164062 294.234375 377.28125 295.351562 C 378.398438 296.46875 377.769531 298.925781 375.878906 300.816406 C 371.566406 305.128906 371.433594 309.121094 375.640625 308.167969 C 377.394531 307.769531 379.351562 311.773438 379.988281 317.066406 C 381.03125 325.753906 380.546875 326.5 375.003906 324.738281 C 370.554688 323.328125 369.230469 323.875 370.195312 326.722656 C 370.933594 328.882812 374.679688 330.359375 378.519531 330 C 382.359375 329.644531 383.871094 330.074219 381.875 330.96875 C 376.6875 333.285156 377.375 338.863281 382.601562 336.855469 C 384.996094 335.9375 386.953125 336.453125 386.953125 337.996094 C 386.953125 339.542969 385.816406 340.808594 384.425781 340.808594 C 380.269531 340.808594 382.617188 361.316406 387.132812 364.425781 C 390.171875 366.519531 389.417969 366.765625 384.355469 365.332031 C 378.269531 363.605469 377.910156 363.902344 381.453125 367.738281 C 383.679688 370.144531 386.808594 371.5 388.40625 370.753906 C 390 370.003906 389.347656 371.121094 386.953125 373.234375 C 384.5625 375.347656 382.652344 380.945312 382.710938 385.675781 C 382.792969 392.292969 384.464844 394.734375 389.964844 396.265625 C 393.894531 397.359375 395.621094 398.386719 393.800781 398.546875 C 390.5 398.835938 390.726562 413.980469 394.195312 424.914062 C 395.601562 429.335938 394.734375 429.972656 389.25 428.558594 C 383.320312 427.03125 383.03125 427.367188 386.585938 431.699219 C 393.050781 439.582031 402.46875 437.636719 408.722656 427.125 C 411.808594 421.9375 414.625 415.792969 414.980469 413.46875 C 415.917969 407.375 422.40625 395.386719 428.300781 388.859375 C 431.09375 385.765625 433.378906 380.871094 433.378906 377.980469 C 433.378906 375.089844 434.554688 372.722656 435.996094 372.722656 C 437.433594 372.722656 439.976562 368.804688 441.648438 364.019531 C 443.316406 359.230469 446.054688 355.316406 447.734375 355.316406 C 449.414062 355.316406 450.785156 352.792969 450.785156 349.707031 C 450.785156 346.625 453.398438 343.269531 456.589844 342.257812 C 459.78125 341.246094 462.390625 337.894531 462.390625 334.808594 C 462.390625 331.726562 463.699219 329.203125 465.292969 329.203125 C 466.890625 329.203125 468.195312 327.242188 468.195312 324.851562 C 468.195312 322.457031 469.71875 320.496094 471.582031 320.496094 C 473.441406 320.496094 474.171875 319.707031 473.207031 318.738281 C 471.363281 316.894531 472.378906 315.417969 485.949219 300.226562 C 490.535156 295.09375 493.4375 289.519531 492.398438 287.839844 C 491.359375 286.160156 491.78125 285.566406 493.332031 286.527344 C 494.882812 287.484375 498.023438 285.601562 500.308594 282.339844 C 502.59375 279.078125 507.480469 275.234375 511.167969 273.796875 C 514.851562 272.359375 517.011719 269.792969 515.960938 268.09375 C 513.722656 264.476562 522.582031 253.765625 527.816406 253.765625 C 529.789062 253.765625 532.230469 251.617188 533.234375 248.996094 C 534.242188 246.375 535.824219 244.988281 536.753906 245.917969 C 537.679688 246.84375 541.390625 244.421875 544.996094 240.527344 C 548.601562 236.636719 554.417969 233.453125 557.917969 233.453125 C 561.421875 233.453125 563.644531 232.414062 562.859375 231.144531 C 560.597656 227.484375 574.886719 228.730469 578.683594 232.527344 C 584.25 238.09375 584.1875 250.832031 578.546875 260.101562 C 575.289062 265.464844 572.808594 267.308594 572.027344 264.957031 C 571.285156 262.734375 570.066406 263.835938 569.074219 267.625 C 568.144531 271.175781 568.554688 273.359375 569.984375 272.476562 C 571.414062 271.59375 571.835938 272.816406 570.921875 275.191406 C 570.011719 277.566406 567.585938 278.867188 565.535156 278.078125 C 562.984375 277.101562 562.0625 278.992188 562.617188 284.054688 C 563.550781 292.566406 558.707031 297.046875 554.957031 291.128906 C 552.96875 287.992188 552.417969 287.949219 552.382812 290.929688 C 552.355469 293.058594 550.863281 293.816406 548.988281 292.65625 C 546.894531 291.363281 546.425781 291.863281 547.738281 293.984375 C 548.890625 295.851562 550.960938 296.683594 552.335938 295.835938 C 553.710938 294.984375 555.65625 295.617188 556.660156 297.238281 C 557.664062 298.859375 556.445312 300.1875 553.960938 300.1875 C 551.472656 300.1875 549.4375 301.546875 549.4375 303.210938 C 549.4375 304.871094 546.871094 308.988281 543.734375 312.355469 C 540.597656 315.71875 538.714844 319.582031 539.550781 320.9375 C 540.390625 322.289062 539.691406 323.398438 538 323.398438 C 536.3125 323.398438 534.929688 325.105469 534.929688 327.195312 C 534.929688 329.285156 532.875 333.527344 530.359375 336.625 C 527.847656 339.722656 526.746094 340.425781 527.90625 338.183594 C 529.296875 335.503906 528.875 334.816406 526.671875 336.179688 C 524.832031 337.316406 523.324219 340.621094 523.324219 343.523438 C 523.324219 346.425781 521.378906 350.414062 519.003906 352.386719 C 516.625 354.359375 515.453125 357.21875 516.394531 358.738281 C 517.335938 360.261719 515.324219 362.234375 511.925781 363.125 C 507.277344 364.339844 506.214844 366.191406 507.617188 370.621094 C 509.097656 375.277344 508.480469 376.117188 504.648438 374.644531 C 501.753906 373.535156 500.535156 373.964844 501.617188 375.710938 C 503.988281 379.550781 491.695312 399.355469 488.257812 397.234375 C 486.796875 396.332031 485.605469 397.753906 485.605469 400.394531 C 485.605469 409.101562 470.066406 433.203125 467.453125 428.550781 C 466.789062 427.367188 466.6875 428.148438 467.226562 430.285156 C 467.769531 432.421875 465.597656 437.492188 462.398438 441.554688 C 455.929688 449.78125 454.808594 456.863281 459.976562 456.863281 C 461.835938 456.863281 462.519531 457.703125 461.496094 458.730469 C 460.472656 459.753906 457.640625 458.941406 455.210938 456.921875 C 450.019531 452.613281 449.539062 454.914062 453.917969 463.097656 C 456.890625 468.652344 457.335938 468.695312 462.554688 463.972656 C 465.582031 461.234375 467.371094 457.878906 466.53125 456.519531 C 465.691406 455.164062 468.988281 454.847656 473.855469 455.820312 C 480.914062 457.234375 482.703125 456.605469 482.703125 452.703125 C 482.703125 450.019531 484.007812 448.625 485.605469 449.613281 C 487.199219 450.597656 488.503906 450.023438 488.503906 448.332031 C 488.503906 443.867188 493.203125 444.570312 498.453125 449.820312 C 502.597656 453.964844 503.015625 453.964844 503.015625 449.820312 C 503.015625 447.3125 501.382812 445.175781 499.386719 445.074219 C 497.390625 444.972656 498.867188 443.648438 502.664062 442.128906 C 507.351562 440.253906 510.839844 440.425781 513.542969 442.667969 C 516.632812 445.234375 517.519531 444.921875 517.519531 441.261719 C 517.519531 438.675781 518.824219 436.394531 520.421875 436.191406 C 522.015625 435.992188 524.628906 435.503906 526.226562 435.105469 C 527.820312 434.707031 531.160156 434.214844 533.648438 434.015625 C 536.136719 433.816406 537.3125 432.261719 536.261719 430.558594 C 535.207031 428.855469 536.109375 427.703125 538.265625 428 C 546.179688 429.085938 549.730469 427.773438 547.707031 424.5 C 546.398438 422.382812 546.914062 421.941406 549.113281 423.300781 C 551.027344 424.484375 554.4375 423.917969 556.691406 422.046875 C 558.945312 420.175781 562.058594 419.433594 563.617188 420.394531 C 565.171875 421.355469 567.265625 420.8125 568.273438 419.183594 C 569.277344 417.554688 573.480469 417.070312 577.609375 418.109375 C 582.484375 419.332031 584.464844 418.933594 583.253906 416.972656 C 582.226562 415.3125 583.292969 413.21875 585.628906 412.324219 C 587.960938 411.429688 590.703125 412.039062 591.71875 413.683594 C 592.820312 415.46875 595.15625 414.394531 597.523438 411.019531 C 601.78125 404.9375 613.269531 400.53125 613.269531 404.976562 C 613.269531 406.460938 616.398438 405.625 620.222656 403.117188 C 624.046875 400.613281 630.738281 397.914062 635.085938 397.125 C 641.5 395.964844 642.652344 396.585938 641.1875 400.410156 C 640.019531 403.453125 640.660156 404.675781 643.003906 403.855469 C 645 403.160156 646.285156 400.59375 645.863281 398.160156 C 645.421875 395.640625 647.867188 393.007812 651.539062 392.050781 C 659.15625 390.058594 662.613281 392.335938 657.121094 395.730469 C 654.25 397.503906 654.136719 398.648438 656.675781 400.214844 C 658.761719 401.507812 660.699219 399.960938 661.675781 396.226562 C 662.550781 392.875 664.75 389.980469 666.558594 389.796875 C 673.257812 389.117188 681.550781 390.777344 684.820312 393.457031 C 687.011719 395.25 688.945312 394.996094 690.347656 392.726562 C 691.664062 390.59375 691.28125 389.992188 689.355469 391.183594 C 685.117188 393.800781 681.492188 387.480469 685.136719 383.835938 C 687.058594 381.914062 690.234375 383.21875 694.597656 387.714844 C 698.210938 391.4375 700.351562 393.027344 699.355469 391.246094 C 698.363281 389.464844 699.992188 385.792969 702.980469 383.089844 C 706.78125 379.652344 708.761719 379.214844 709.570312 381.640625 C 710.367188 384.027344 712.292969 383.539062 715.757812 380.074219 C 719.140625 376.691406 723.144531 375.628906 727.960938 376.839844 C 731.902344 377.828125 735.128906 377.632812 735.128906 376.40625 C 735.128906 375.179688 739.371094 374.0625 744.558594 373.929688 C 749.746094 373.792969 757.90625 372.777344 762.691406 371.671875 C 771.328125 369.679688 783.582031 374.621094 776.898438 377.398438 C 775.132812 378.128906 774.304688 381.945312 775.058594 385.871094 C 776.226562 391.996094 774.617188 393.835938 763.753906 398.765625 C 756.789062 401.925781 748.800781 404.539062 746.007812 404.574219 C 743.21875 404.609375 740.933594 405.855469 740.933594 407.34375 C 740.933594 409.671875 730.742188 414.40625 726.425781 414.089844 C 725.625 414.03125 721.335938 416.570312 716.890625 419.738281 C 712.445312 422.902344 707.222656 425.734375 705.285156 426.027344 C 703.347656 426.324219 700.128906 427.582031 698.136719 428.828125 C 696.140625 430.074219 693.203125 430.289062 691.605469 429.300781 C 690.011719 428.316406 688.707031 429.269531 688.707031 431.425781 C 688.707031 435.867188 659.597656 451.0625 651.09375 451.0625 C 648.03125 451.0625 644.664062 452.457031 643.613281 454.160156 C 642.558594 455.867188 639.902344 456.574219 637.714844 455.734375 C 635.523438 454.890625 632.71875 455.878906 631.480469 457.929688 C 628.238281 463.289062 619.59375 465.859375 617.300781 462.148438 C 616.097656 460.203125 613.863281 461.648438 611.507812 465.902344 C 609.398438 469.710938 607.625 471.179688 607.570312 469.171875 C 607.484375 466.238281 606.183594 466.238281 600.9375 469.171875 C 597.347656 471.179688 593.574219 473.96875 592.558594 475.371094 C 591.539062 476.773438 589.253906 477.019531 587.480469 475.925781 C 585.707031 474.828125 584.253906 475.476562 584.253906 477.359375 C 584.253906 479.941406 583.269531 479.96875 580.253906 477.46875 C 577.097656 474.847656 575.878906 475.53125 574.453125 480.742188 C 573.039062 485.910156 572.085938 486.457031 570.039062 483.28125 C 566.820312 478.28125 558.140625 481.171875 558.140625 487.238281 C 558.140625 489.683594 556.875 491.683594 555.332031 491.683594 C 553.785156 491.683594 553.269531 489.398438 554.1875 486.605469 C 555.101562 483.8125 553.429688 484.921875 550.46875 489.066406 C 547.507812 493.214844 543.238281 495.972656 540.984375 495.195312 C 538.730469 494.421875 535.46875 495.679688 533.730469 497.992188 C 529.757812 503.289062 520.421875 506.941406 520.421875 503.199219 C 520.421875 501.652344 522.597656 500.386719 525.257812 500.386719 C 527.917969 500.386719 529.320312 499.613281 528.378906 498.671875 C 527.433594 497.726562 523.855469 497.847656 520.421875 498.9375 C 516.992188 500.027344 514.890625 501.625 515.753906 502.488281 C 517.808594 504.542969 504.613281 514.894531 499.933594 514.894531 C 495.402344 514.894531 460.367188 534.347656 457.996094 538.175781 C 455.144531 542.792969 459.15625 541.429688 468.277344 534.683594 C 472.980469 531.207031 477.785156 529.320312 478.957031 530.492188 C 480.128906 531.660156 479.203125 533.78125 476.902344 535.203125 C 471.511719 538.535156 472.984375 539.671875 486.800781 542.847656 C 497.589844 545.328125 497.902344 545.703125 493.09375 550.511719 C 490.316406 553.289062 488.695312 557.1875 489.496094 559.167969 C 490.644531 562.015625 490.996094 562.011719 491.179688 559.140625 C 491.304688 557.148438 494.8125 555.515625 498.972656 555.515625 C 503.984375 555.515625 506.046875 556.785156 505.089844 559.285156 C 504.089844 561.894531 506.132812 562.886719 511.707031 562.5 C 517.941406 562.066406 520.515625 563.683594 523.046875 569.609375 C 526.203125 577.003906 526.148438 577.070312 521.53125 571.472656 C 517.300781 566.347656 516.953125 566.289062 518.582031 570.984375 C 519.59375 573.910156 520.421875 576.847656 520.421875 577.511719 C 520.421875 578.183594 524.339844 578.726562 529.125 578.726562 C 533.914062 578.726562 537.832031 580.109375 537.832031 581.800781 C 537.832031 583.488281 538.988281 584.15625 540.402344 583.28125 C 541.820312 582.40625 544.757812 583.882812 546.933594 586.554688 C 550.386719 590.804688 550.242188 591.179688 545.808594 589.515625 C 543.015625 588.46875 540.730469 588.726562 540.730469 590.085938 C 540.730469 593.863281 551.476562 595.835938 554.667969 592.644531 C 556.492188 590.820312 558.175781 590.941406 559.4375 592.980469 C 560.507812 594.714844 560.203125 596.136719 558.757812 596.136719 C 555.652344 596.136719 555.9375 610.625 559.050781 610.894531 C 560.226562 610.996094 562.785156 610.429688 564.742188 609.640625 C 567.386719 608.566406 567.324219 608.140625 564.496094 607.96875 C 562.410156 607.84375 561.507812 606.4375 562.492188 604.839844 C 565.824219 599.449219 569.746094 601.894531 569.746094 609.363281 C 569.746094 613.652344 570.992188 616.019531 572.695312 614.964844 C 574.316406 613.964844 574.910156 611.601562 574.011719 609.71875 C 573.113281 607.832031 574.558594 609.226562 577.21875 612.820312 C 579.882812 616.410156 584.511719 619.347656 587.507812 619.347656 C 590.507812 619.347656 592.957031 621.304688 592.957031 623.699219 C 592.957031 626.09375 594.101562 627.726562 595.5 627.328125 C 596.898438 626.925781 602.003906 630.09375 606.839844 634.363281 C 611.675781 638.632812 616.40625 641.351562 617.355469 640.410156 C 618.296875 639.464844 619.070312 640.941406 619.070312 643.699219 C 619.070312 646.453125 620.378906 647.898438 621.972656 646.910156 C 623.632812 645.886719 624.875 648.449219 624.875 652.898438 C 624.875 659.484375 625.542969 660.125 629.226562 657.066406 C 632.699219 654.183594 634.457031 654.183594 637.929688 657.066406 C 640.324219 659.050781 642.28125 662.476562 642.28125 664.675781 C 642.28125 666.875 644.242188 668.671875 646.632812 668.671875 C 649.027344 668.671875 650.988281 670.628906 650.988281 673.023438 C 650.988281 676.949219 654.433594 678.664062 660.417969 677.71875 C 661.613281 677.53125 662.59375 678.757812 662.59375 680.449219 C 662.59375 682.140625 663.816406 682.765625 665.316406 681.839844 C 666.8125 680.914062 669.199219 682.226562 670.617188 684.761719 C 672.035156 687.296875 677.011719 691.882812 681.675781 694.960938 C 686.53125 698.160156 688.296875 700.578125 685.804688 700.613281 C 681.9375 700.671875 681.9375 700.988281 685.804688 703.488281 C 688.96875 705.53125 689.117188 706.3125 686.359375 706.347656 C 684.269531 706.371094 683.277344 707.546875 684.152344 708.964844 C 685.027344 710.378906 683.980469 712.996094 681.828125 714.785156 C 679.671875 716.570312 678.5 721.105469 679.21875 724.863281 C 680.152344 729.761719 679.015625 732.050781 675.183594 732.964844 C 668.257812 734.621094 652.601562 731.691406 653.328125 728.878906 C 654.699219 723.550781 653.652344 720.703125 650.941406 722.378906 C 649.316406 723.378906 648.691406 725.332031 649.546875 726.714844 C 650.414062 728.121094 647.558594 728.167969 643.0625 726.824219 C 628.945312 722.597656 619.683594 718.433594 617.871094 715.496094 C 616.898438 713.925781 612.203125 711.78125 607.433594 710.734375 C 602.664062 709.6875 598.761719 707.949219 598.761719 706.867188 C 598.761719 705.789062 594.835938 703.167969 590.039062 701.046875 C 585.070312 698.84375 582.15625 695.832031 583.261719 694.042969 C 584.492188 692.046875 583.453125 691.570312 580.421875 692.734375 C 577.335938 693.917969 574.554688 692.546875 572.589844 688.875 C 570.914062 685.742188 567.628906 683.179688 565.292969 683.179688 C 562.957031 683.179688 561.042969 681.914062 561.042969 680.367188 C 561.042969 678.824219 558.859375 678.398438 556.1875 679.421875 C 552.507812 680.832031 551.78125 680.105469 553.195312 676.429688 C 555.074219 671.53125 552.761719 670.414062 542.84375 671.433594 C 540.015625 671.722656 537.886719 670.894531 538.109375 669.589844 C 539.15625 663.519531 537.5625 657.066406 535.019531 657.066406 C 533.476562 657.066406 533.042969 659.351562 534.0625 662.144531 C 535.738281 666.738281 535.320312 666.699219 529.6875 661.753906 C 526.261719 658.75 524.285156 654.957031 525.292969 653.328125 C 526.351562 651.613281 525.6875 651.253906 523.710938 652.472656 C 521.808594 653.648438 516.507812 651.386719 511.703125 647.34375 C 506.007812 642.550781 504.316406 639.550781 506.6875 638.460938 C 508.65625 637.550781 507.648438 637.4375 504.445312 638.203125 C 500.875 639.058594 495.359375 636.800781 490.210938 632.375 C 485.585938 628.402344 480.738281 625.148438 479.441406 625.148438 C 478.144531 625.148438 477.796875 623.285156 478.671875 621.007812 C 479.816406 618.03125 478.648438 617.292969 474.507812 618.375 C 470.441406 619.4375 468.191406 618.101562 466.832031 613.808594 C 465.769531 610.472656 463.359375 607.589844 461.472656 607.40625 C 454.886719 606.765625 452.191406 606.15625 445.558594 603.8125 C 439.851562 601.792969 439.425781 600.769531 442.65625 596.785156 C 444.769531 594.179688 444.980469 592.992188 443.136719 594.097656 C 441.324219 595.183594 438.226562 594.128906 436.253906 591.75 C 432.480469 587.207031 426.128906 585.648438 428.769531 589.914062 C 429.609375 591.277344 427.078125 591.78125 423.136719 591.027344 C 418.976562 590.230469 415.972656 591.015625 415.972656 592.894531 C 415.972656 594.675781 417.039062 596.136719 418.34375 596.136719 C 419.652344 596.136719 420.875 599.726562 421.066406 604.113281 C 421.261719 608.503906 421.640625 617.96875 421.910156 625.148438 C 422.179688 632.332031 423.722656 639.839844 425.34375 641.832031 C 427.222656 644.148438 427.257812 645.460938 425.433594 645.460938 C 423.863281 645.460938 423.203125 648.722656 423.964844 652.714844 C 424.726562 656.703125 426.832031 659.988281 428.640625 660.011719 C 430.449219 660.035156 430.03125 661.257812 427.710938 662.722656 C 424.359375 664.84375 424.164062 666.773438 426.765625 672.109375 C 430.949219 680.6875 433.277344 695.0625 430.175781 693.144531 C 428.875 692.34375 429.195312 695.660156 430.890625 700.523438 C 432.585938 705.386719 433.242188 711.265625 432.351562 713.585938 C 431.460938 715.910156 431.984375 718.585938 433.515625 719.53125 C 435.046875 720.476562 435.503906 724.4375 434.527344 728.328125 C 433.460938 732.570312 434.011719 735.40625 435.894531 735.40625 C 438.007812 735.40625 438.175781 737.671875 436.414062 742.304688 C 434.511719 747.3125 435.066406 751.03125 438.4375 755.84375 C 441.242188 759.847656 441.613281 761.570312 439.371094 760.183594 C 436.539062 758.433594 436.214844 759.527344 438.003906 764.78125 C 439.292969 768.570312 440.410156 774.609375 440.488281 778.199219 C 440.570312 781.792969 441.472656 784.730469 442.503906 784.730469 C 443.53125 784.730469 443.328125 789.355469 442.054688 795.007812 C 440.101562 803.660156 440.382812 804.753906 443.8125 801.90625 C 448.914062 797.671875 448.953125 799.417969 443.972656 809.015625 C 441.820312 813.164062 439.140625 815.636719 438.015625 814.511719 C 436.894531 813.390625 436.835938 814.714844 437.886719 817.457031 C 438.941406 820.203125 438.453125 822.449219 436.800781 822.449219 C 435.148438 822.449219 434.300781 826.402344 434.914062 831.246094 C 435.5625 836.363281 434.863281 839.324219 433.253906 838.328125 C 431.726562 837.382812 430.476562 837.902344 430.476562 839.476562 C 430.476562 841.054688 428.308594 844.511719 425.652344 847.164062 C 421.957031 850.863281 421.675781 852.507812 424.445312 854.222656 C 427.15625 855.898438 426.875 856.914062 423.316406 858.277344 C 420.289062 859.441406 419.28125 858.949219 420.535156 856.921875 L 420.523438 856.917969 C 421.808594 854.835938 420.527344 854.359375 416.808594 855.542969 C 413.097656 856.71875 409.296875 855.320312 405.839844 851.5 C 402.933594 848.285156 401.351562 845.65625 402.324219 845.65625 C 403.300781 845.65625 402.285156 840.511719 400.0625 834.226562 C 397.019531 825.601562 396.875 822.457031 399.46875 821.402344 C 401.984375 820.375 401.933594 819.941406 399.277344 819.773438 C 393.652344 819.417969 395 810.871094 400.726562 810.578125 C 403.519531 810.433594 401.234375 808.957031 395.648438 807.300781 C 390.0625 805.640625 387.132812 803.691406 389.136719 802.960938 C 391.144531 802.234375 392.046875 800.445312 391.144531 798.984375 C 390.242188 797.527344 390.605469 796.332031 391.957031 796.332031 C 393.304688 796.332031 394.40625 793.71875 394.40625 790.53125 C 394.40625 786.28125 393.019531 785.167969 389.222656 786.375 C 385.390625 787.589844 384.042969 786.457031 384.042969 782.019531 C 384.042969 778.71875 382.824219 776.019531 381.335938 776.019531 C 379.847656 776.019531 379.109375 770.773438 379.695312 764.363281 C 380.453125 756.074219 379.769531 753.199219 377.324219 754.421875 C 375.433594 755.367188 376.324219 754.160156 379.300781 751.734375 C 384.566406 747.449219 384.546875 747.113281 378.617188 739.570312 C 372.671875 732.015625 372.746094 724.75 378.730469 728.449219 C 380.523438 729.558594 380.386719 727.800781 378.382812 724.0625 C 375.578125 718.820312 369.535156 717.878906 369.535156 722.6875 C 369.535156 723.484375 370.839844 723.332031 372.4375 722.34375 C 374.035156 721.359375 375.339844 721.933594 375.339844 723.625 C 375.339844 725.3125 374.25 726.695312 372.921875 726.695312 C 367.671875 726.695312 367.058594 722.691406 371.101562 714.867188 C 373.433594 710.363281 375.300781 703.671875 375.25 700.003906 C 375.167969 694.054688 374.839844 693.882812 372.191406 698.429688 C 370.558594 701.234375 369.96875 704.738281 370.878906 706.210938 C 371.789062 707.683594 371.476562 709.539062 370.183594 710.335938 C 368.894531 711.136719 367.636719 709.121094 367.390625 705.859375 C 367.148438 702.601562 364.832031 697.597656 362.25 694.746094 C 357.269531 689.242188 360.867188 683.964844 367.011719 687.761719 C 369.007812 688.996094 369.742188 688.210938 368.886719 685.753906 C 368.113281 683.539062 365.007812 682.105469 361.980469 682.570312 C 357.855469 683.207031 357.457031 682.757812 360.390625 680.773438 C 363.511719 678.664062 362.960938 676.878906 357.667969 671.949219 C 354.019531 668.546875 348.339844 665.785156 345.050781 665.8125 C 340.558594 665.84375 340.058594 666.480469 343.035156 668.367188 C 346.175781 670.355469 346.28125 672.003906 343.542969 676.300781 C 340.191406 681.558594 340.136719 681.558594 341.785156 676.328125 C 343.085938 672.210938 342.371094 671.355469 338.78125 672.734375 C 335.488281 673.996094 334.550781 673.292969 335.664062 670.394531 C 336.539062 668.113281 335.621094 665.625 333.632812 664.859375 C 329.539062 663.289062 330.828125 680.5625 335.003906 683.277344 C 336.316406 684.128906 334.878906 686.394531 331.808594 688.3125 Z M 641.824219 699.410156 C 643.664062 698.269531 645.171875 698.722656 645.171875 700.414062 C 645.171875 702.101562 647.089844 703.484375 649.433594 703.484375 C 651.957031 703.484375 653.039062 705.195312 652.085938 707.679688 C 650.730469 711.210938 651.890625 711.339844 659.429688 708.492188 C 664.355469 706.632812 668.382812 704.09375 668.382812 702.847656 C 668.382812 699.589844 663.25 700.058594 661.117188 703.507812 C 660.003906 705.308594 657.558594 704.679688 654.75 701.871094 C 651.34375 698.464844 651.023438 696.472656 653.484375 694.011719 C 655.296875 692.203125 656.675781 688.695312 656.550781 686.222656 C 656.355469 682.367188 656.078125 682.339844 654.632812 686.023438 C 652.34375 691.855469 646.210938 697.75 644.359375 695.898438 C 643.53125 695.070312 641.867188 695.988281 640.664062 697.9375 C 639.265625 700.203125 639.683594 700.734375 641.824219 699.410156 Z M 584.246094 625.144531 C 589.820312 628.75 590.824219 628.75 588.597656 625.144531 C 587.613281 623.550781 585.25 622.265625 583.351562 622.289062 C 581.273438 622.3125 581.632812 623.457031 584.246094 625.144531 Z M 558.308594 437.894531 C 559.808594 436.96875 561.035156 434.328125 561.035156 432.03125 C 561.035156 425.570312 556.523438 427.089844 556.023438 433.714844 C 555.78125 436.941406 556.808594 438.820312 558.308594 437.894531 Z M 518.414062 453.960938 C 519.019531 453.960938 521.878906 451.351562 524.765625 448.160156 C 527.65625 444.964844 528.554688 442.355469 526.769531 442.355469 C 524.980469 442.355469 522.121094 444.964844 520.414062 448.160156 C 518.707031 451.351562 517.804688 453.960938 518.414062 453.960938 Z M 505.90625 445.085938 C 505.90625 446.777344 507.214844 448.160156 508.808594 448.160156 C 510.40625 448.160156 511.710938 447.582031 511.710938 446.878906 C 511.710938 446.175781 510.40625 444.792969 508.808594 443.804688 C 507.214844 442.820312 505.90625 443.394531 505.90625 445.085938 Z M 498.652344 509.089844 C 499.640625 510.683594 501.753906 511.988281 503.347656 511.988281 C 504.945312 511.988281 505.441406 510.683594 504.457031 509.089844 C 503.472656 507.492188 501.359375 506.1875 499.761719 506.1875 C 498.167969 506.1875 497.667969 507.492188 498.652344 509.089844 Z M 482.125 510.902344 C 481.015625 509.542969 480.304688 511.046875 480.542969 514.246094 C 480.820312 517.898438 482.464844 519.488281 484.984375 518.519531 C 487.183594 517.675781 487.898438 516.171875 486.566406 515.179688 C 485.234375 514.1875 483.238281 512.261719 482.125 510.902344 Z M 471.222656 469.917969 C 471.246094 471.515625 472.613281 470.507812 474.257812 467.679688 C 475.902344 464.855469 478.800781 463.414062 480.699219 464.480469 C 482.890625 465.714844 482.78125 464.953125 480.398438 462.390625 C 477.207031 458.960938 476.246094 459.003906 473.914062 462.6875 C 472.410156 465.070312 471.199219 468.324219 471.222656 469.917969 Z M 529.15625 306.054688 C 532.8125 312.886719 533.957031 313.246094 533.957031 307.5625 C 533.957031 305.238281 532.183594 302.65625 530.019531 301.828125 C 526.929688 300.640625 526.746094 301.554688 529.15625 306.054688 Z M 522.050781 318.445312 C 523.140625 321.304688 524.765625 322.917969 525.65625 322.023438 C 526.550781 321.128906 525.660156 318.789062 523.675781 316.820312 C 520.8125 313.976562 520.476562 314.308594 522.050781 318.445312 Z M 510.054688 315.023438 C 510.054688 321.566406 510.101562 321.582031 514.332031 316.480469 C 516.867188 313.425781 516.753906 312.121094 513.855469 311.007812 C 511.546875 310.121094 510.054688 311.699219 510.054688 315.023438 Z M 500.105469 331.929688 C 500.105469 333.621094 502.0625 335.003906 504.457031 335.003906 C 506.851562 335.003906 508.808594 333.621094 508.808594 331.929688 C 508.808594 330.238281 510.117188 329.664062 511.710938 330.648438 C 513.304688 331.636719 514.613281 331.136719 514.613281 329.542969 C 514.613281 324.441406 509.480469 323.265625 507.683594 327.949219 C 506.730469 330.433594 504.632812 331.65625 503.027344 330.664062 C 501.417969 329.667969 500.105469 330.242188 500.105469 331.929688 Z M 487.773438 372.351562 C 482.941406 376.140625 481.402344 378.523438 483.792969 378.523438 C 484.394531 378.523438 486.679688 376.238281 488.867188 373.445312 C 492.476562 368.84375 492.375 368.742188 487.773438 372.351562 Z M 466.480469 393.792969 C 471.71875 392.789062 472.941406 391.09375 471.742188 386.503906 C 470.753906 382.71875 471.308594 381.21875 473.253906 382.417969 C 474.992188 383.496094 477.644531 380.542969 479.359375 375.621094 C 481.101562 370.625 484.464844 366.917969 487.253906 366.917969 C 490.988281 366.917969 491.363281 366.019531 488.878906 363.023438 C 484.984375 358.328125 487.460938 355.097656 493.253906 357.320312 C 497.925781 359.113281 497.605469 352.320312 492.851562 348.828125 C 491.054688 347.507812 491.332031 346.679688 493.578125 346.652344 C 495.570312 346.628906 497.203125 343.996094 497.203125 340.804688 C 497.203125 337.613281 495.820312 335.003906 494.128906 335.003906 C 492.441406 335.003906 491.863281 336.304688 492.847656 337.898438 C 495.019531 341.414062 487.316406 353.164062 484.613281 350.457031 C 483.558594 349.40625 482.695312 350.71875 482.695312 353.378906 C 482.695312 356.039062 481.601562 358.214844 480.261719 358.214844 C 476.847656 358.214844 470.664062 372.582031 472.675781 375.839844 C 473.589844 377.316406 473.234375 378.523438 471.886719 378.523438 C 470.542969 378.523438 467.238281 382.253906 464.546875 386.808594 C 459.703125 395.011719 459.722656 395.082031 466.480469 393.792969 Z M 453.511719 395.933594 C 455.199219 395.933594 456.582031 394.628906 456.582031 393.03125 C 456.582031 391.433594 456.007812 390.128906 455.304688 390.128906 C 454.597656 390.128906 453.21875 391.433594 452.230469 393.03125 C 451.246094 394.628906 451.820312 395.933594 453.511719 395.933594 Z M 453.71875 404.722656 C 459.003906 408.066406 458.824219 408.050781 460.5625 405.238281 C 461.34375 403.976562 459.152344 402.726562 455.691406 402.464844 C 450.710938 402.089844 450.300781 402.558594 453.71875 404.722656 Z M 446.613281 414.191406 C 447.703125 417.054688 449.328125 418.664062 450.21875 417.769531 C 451.113281 416.875 450.222656 414.535156 448.238281 412.566406 C 445.375 409.722656 445.039062 410.058594 446.613281 414.191406 Z M 444.976562 449.871094 C 444.976562 450.425781 446.933594 450.125 449.328125 449.207031 C 451.722656 448.289062 453.679688 446.210938 453.679688 444.589844 C 453.679688 442.894531 451.839844 443.175781 449.328125 445.257812 C 446.933594 447.242188 444.976562 449.320312 444.976562 449.875 Z M 444.976562 476.007812 C 444.976562 479.535156 445.699219 479.636719 449.023438 476.5625 C 451.25 474.503906 452.464844 471.820312 451.726562 470.597656 C 449.714844 467.28125 444.976562 471.078125 444.976562 476.007812 Z M 443.828125 429.964844 C 444.792969 429 444.894531 426.496094 444.058594 424.402344 C 443.132812 422.089844 442.445312 422.777344 442.304688 426.15625 C 442.179688 429.214844 442.863281 430.929688 443.828125 429.964844 Z M 440.8125 454.8125 C 441.902344 457.671875 443.523438 459.28125 444.417969 458.390625 C 445.3125 457.496094 444.417969 455.15625 442.4375 453.1875 C 439.570312 450.34375 439.238281 450.675781 440.8125 454.8125 Z M 429.019531 448.160156 C 430.003906 449.753906 431.386719 451.058594 432.09375 451.058594 C 432.796875 451.058594 433.371094 449.753906 433.371094 448.160156 C 433.371094 446.5625 431.988281 445.257812 430.296875 445.257812 C 428.609375 445.257812 428.03125 446.5625 429.019531 448.160156 Z M 418.863281 584.527344 C 418.863281 586.121094 420.171875 587.425781 421.765625 587.425781 C 423.359375 587.425781 424.667969 586.121094 424.667969 584.527344 C 424.667969 582.929688 423.359375 581.625 421.765625 581.625 C 420.171875 581.625 418.863281 582.929688 418.863281 584.527344 Z M 401.453125 781.824219 C 401.453125 780.226562 400.070312 778.921875 398.378906 778.921875 C 396.6875 778.921875 396.113281 780.226562 397.097656 781.824219 C 398.085938 783.417969 399.46875 784.726562 400.171875 784.726562 C 400.875 784.726562 401.453125 783.417969 401.453125 781.824219 Z M 399.851562 772.011719 C 397.269531 771.023438 396.101562 771.507812 397.121094 773.152344 C 398.824219 775.910156 404.355469 777.230469 404.355469 774.878906 L 404.351562 774.878906 C 404.351562 774.253906 402.328125 772.964844 399.851562 772.011719 Z M 392.75 442.355469 C 392.75 443.953125 394.058594 445.257812 395.652344 445.257812 C 397.25 445.257812 398.554688 443.953125 398.554688 442.355469 C 398.554688 440.761719 397.25 439.453125 395.652344 439.453125 C 394.058594 439.453125 392.75 440.761719 392.75 442.355469 Z M 389.675781 776.019531 C 387.984375 776.019531 387.410156 777.328125 388.394531 778.921875 C 389.382812 780.519531 390.765625 781.824219 391.46875 781.824219 C 392.171875 781.824219 392.746094 780.519531 392.746094 778.921875 C 392.746094 777.328125 391.363281 776.019531 389.675781 776.019531 Z M 389.121094 767.085938 C 389.519531 767.214844 389.847656 765.359375 389.847656 762.964844 C 389.847656 760.570312 387.886719 758.613281 385.492188 758.613281 C 377.941406 758.613281 380.390625 764.332031 389.121094 767.085938 Z M 369.503906 661.433594 C 367.925781 662.410156 366.632812 664.4375 366.632812 665.9375 C 366.632812 670.109375 368.714844 669.191406 370.644531 664.164062 C 371.632812 661.582031 371.148438 660.417969 369.503906 661.433594 Z M 368.210938 647.390625 C 370.535156 647.390625 372.4375 646.300781 372.4375 644.972656 C 372.4375 643.644531 371.207031 642.554688 369.707031 642.554688 C 368.207031 642.554688 366.304688 643.644531 365.484375 644.972656 C 364.660156 646.304688 365.890625 647.390625 368.210938 647.390625 Z M 341.058594 615.8125 C 338.976562 613.730469 337.625 613.558594 337.625 615.378906 C 337.625 619.25 341.054688 622.683594 342.992188 620.746094 C 343.816406 619.921875 342.941406 617.703125 341.058594 615.8125 Z M 336.304688 624.148438 C 333.511719 623.074219 332.652344 623.941406 333.730469 626.746094 C 335.601562 631.617188 336.664062 631.949219 338.886719 628.351562 C 339.769531 626.921875 338.609375 625.03125 336.304688 624.148438 Z M 346.238281 239.253906 C 347.785156 239.253906 348.296875 237.296875 347.378906 234.902344 C 346.460938 232.507812 345.195312 230.550781 344.566406 230.550781 C 343.941406 230.550781 343.425781 232.507812 343.425781 234.902344 C 343.425781 237.296875 344.691406 239.253906 346.238281 239.253906 Z M 344.875 642.554688 C 345.859375 644.152344 347.242188 645.457031 347.945312 645.457031 C 348.648438 645.457031 349.226562 644.152344 349.226562 642.554688 C 349.226562 640.960938 347.84375 639.652344 346.152344 639.652344 C 344.464844 639.652344 343.886719 640.960938 344.875 642.554688 Z M 357.371094 653.460938 C 350.203125 655.332031 341.050781 662.863281 345.945312 662.863281 C 347.5625 662.863281 349.710938 661.523438 350.722656 659.886719 C 351.738281 658.25 354.617188 657.269531 357.121094 657.710938 C 359.628906 658.152344 362.21875 656.984375 362.871094 655.113281 C 363.664062 652.859375 361.8125 652.304688 357.371094 653.460938 Z M 352.613281 227.648438 C 348.246094 227.648438 348.289062 231.351562 352.710938 235.773438 C 357.4375 240.5 359.425781 240.195312 355.414062 235.359375 C 353.636719 233.21875 353.039062 230.609375 354.089844 229.558594 C 355.140625 228.507812 354.476562 227.648438 352.613281 227.648438 Z M 352.203125 200.039062 C 353.621094 199.164062 354.011719 196.445312 353.070312 193.996094 C 351.953125 191.085938 350.375 190.527344 348.515625 192.382812 C 345.195312 195.707031 348.410156 202.382812 352.203125 200.039062 Z M 336.378906 198.867188 C 337.8125 201.132812 339.167969 203.964844 339.394531 205.164062 C 339.617188 206.359375 339.964844 208.070312 340.164062 208.960938 C 340.902344 212.261719 346.328125 206.851562 346.328125 202.816406 C 346.328125 200.515625 345.78125 198.632812 345.113281 198.632812 C 344.449219 198.632812 341.621094 197.761719 338.835938 196.691406 C 334.957031 195.203125 334.382812 195.710938 336.378906 198.867188 Z M 334.722656 408.988281 C 334.722656 406.59375 334.210938 404.636719 333.582031 404.636719 C 332.953125 404.636719 331.691406 406.59375 330.773438 408.988281 C 329.851562 411.382812 330.367188 413.34375 331.910156 413.34375 C 333.457031 413.34375 334.722656 411.382812 334.722656 408.988281 Z M 333.996094 444.101562 C 335.992188 442.953125 337.625 443.398438 337.625 445.085938 C 337.625 449.417969 339.621094 448.902344 341.464844 444.09375 C 343.140625 439.726562 336.515625 439.4375 332.628906 443.703125 C 331.386719 445.070312 332.003906 445.25 333.996094 444.101562 Z M 331.816406 639.734375 C 331.816406 641.183594 333.769531 641.625 336.152344 640.710938 C 338.539062 639.792969 339.753906 637.855469 338.855469 636.402344 C 336.972656 633.359375 331.816406 635.800781 331.816406 639.734375 Z M 125.820312 378.523438 C 125.820312 376.929688 125.242188 375.625 124.539062 375.625 C 123.835938 375.625 122.453125 376.929688 121.464844 378.523438 C 120.480469 380.121094 121.054688 381.425781 122.746094 381.425781 C 124.4375 381.425781 125.820312 380.121094 125.820312 378.523438 Z M 163.539062 408.988281 C 161.488281 406.519531 159.210938 405.09375 158.480469 405.828125 C 156.878906 407.425781 164.496094 416.128906 166.128906 414.570312 C 166.753906 413.972656 165.589844 411.460938 163.539062 408.988281 Z M 221.566406 448.160156 C 221.566406 446.5625 220.261719 445.257812 218.664062 445.257812 C 217.070312 445.257812 215.761719 446.5625 215.761719 448.160156 C 215.761719 449.753906 217.070312 451.058594 218.664062 451.058594 C 220.261719 451.058594 221.566406 449.753906 221.566406 448.160156 Z M 234.773438 452.855469 C 229.746094 454.78125 228.828125 456.863281 233 456.863281 C 234.503906 456.863281 236.527344 455.570312 237.503906 453.992188 C 238.519531 452.347656 237.355469 451.863281 234.773438 452.855469 Z M 285.398438 472.820312 C 285.398438 472.363281 283.441406 471.238281 281.046875 470.320312 C 278.421875 469.3125 276.695312 470.304688 276.695312 472.820312 C 276.695312 475.335938 278.421875 476.328125 281.046875 475.320312 C 283.441406 474.402344 285.398438 473.277344 285.398438 472.820312 Z M 279.59375 491.679688 C 279.59375 490.085938 279.019531 488.777344 278.316406 488.777344 C 277.613281 488.777344 276.230469 490.085938 275.242188 491.679688 C 274.257812 493.277344 274.832031 494.582031 276.523438 494.582031 C 278.210938 494.582031 279.59375 493.277344 279.59375 491.679688 Z M 299.90625 478.625 C 299.90625 476.230469 299.390625 474.269531 298.765625 474.269531 C 298.136719 474.269531 296.871094 476.230469 295.953125 478.625 C 295.035156 481.019531 295.550781 482.976562 297.09375 482.976562 C 298.640625 482.976562 299.90625 481.019531 299.90625 478.625 Z M 305.878906 500.382812 C 304.191406 500.382812 302.804688 501.691406 302.804688 503.285156 C 302.804688 504.882812 303.382812 506.1875 304.085938 506.1875 C 304.789062 506.1875 306.171875 504.882812 307.160156 503.285156 C 308.144531 501.691406 307.570312 500.382812 305.878906 500.382812 Z M 143.222656 655.78125 C 143.222656 655.078125 141.917969 653.695312 140.324219 652.710938 C 138.726562 651.722656 137.421875 652.300781 137.421875 653.988281 C 137.421875 655.679688 138.726562 657.0625 140.324219 657.0625 C 141.917969 657.0625 143.222656 656.484375 143.222656 655.78125 Z M 149.199219 648.359375 C 147.507812 648.359375 146.125 649.664062 146.125 651.257812 C 146.125 652.855469 146.699219 654.160156 147.40625 654.160156 C 148.109375 654.160156 149.492188 652.855469 150.476562 651.257812 C 151.464844 649.664062 150.886719 648.359375 149.199219 648.359375 Z M 213.035156 619.34375 C 211.34375 619.34375 209.960938 620.648438 209.960938 622.246094 C 209.960938 623.839844 210.535156 625.144531 211.238281 625.144531 C 211.945312 625.144531 213.328125 623.839844 214.3125 622.246094 C 215.296875 620.648438 214.722656 619.34375 213.035156 619.34375 Z M 250.582031 613.371094 C 250.582031 611.867188 248.664062 610.640625 246.320312 610.640625 C 243.527344 610.640625 242.664062 608.886719 243.808594 605.5625 C 245.230469 601.4375 244.683594 601.574219 240.910156 606.285156 C 238.351562 609.476562 236.238281 613.394531 236.210938 614.992188 C 236.1875 616.585938 237.378906 615.972656 238.863281 613.621094 C 241.179688 609.960938 241.835938 610.0625 243.476562 614.332031 C 245.375 619.285156 250.582031 618.578125 250.582031 613.371094 Z M 268.832031 546.808594 L 268.828125 546.808594 C 267.996094 543.617188 266.113281 541.003906 264.648438 541.003906 C 263.175781 541.003906 263.371094 543.601562 265.085938 546.808594 C 266.796875 550 268.679688 552.609375 269.269531 552.609375 C 269.863281 552.609375 269.664062 550 268.832031 546.808594 Z M 287.511719 727.84375 C 286.546875 726.878906 284.042969 726.777344 281.949219 727.617188 C 279.632812 728.542969 280.324219 729.230469 283.703125 729.367188 C 286.761719 729.496094 288.472656 728.808594 287.511719 727.84375 Z M 292.648438 735.402344 C 291.660156 733.804688 289.300781 732.519531 287.398438 732.542969 C 285.324219 732.570312 285.679688 733.710938 288.296875 735.402344 C 293.871094 739.003906 294.875 739.003906 292.648438 735.402344 Z M 299.84375 716.472656 C 297.824219 714.039062 295.417969 712.804688 294.496094 713.726562 C 293.570312 714.652344 294.738281 716.621094 297.085938 718.105469 C 303.226562 721.988281 304.03125 721.515625 299.84375 716.472656 Z M 328.5 648.039062 C 322.378906 644.160156 319.578125 645.019531 323.722656 649.503906 C 325.78125 651.730469 328.582031 652.871094 329.953125 652.042969 C 331.316406 651.214844 330.667969 649.410156 328.5 648.039062 Z M 88.296875 673.144531 C 86.8125 672.226562 84.777344 672.800781 83.773438 674.425781 C 82.773438 676.046875 83.988281 677.375 86.476562 677.375 C 91.570312 677.375 92.320312 675.632812 88.296875 673.144531 Z M 235.863281 817.820312 C 235.0625 818.621094 228.707031 820.1875 221.738281 821.300781 C 212.503906 822.777344 209.632812 822.421875 211.140625 819.984375 C 212.277344 818.144531 211.777344 816.640625 210.03125 816.640625 C 207.796875 816.640625 207.742188 814.984375 209.847656 811.046875 C 211.496094 807.972656 212.003906 803.273438 210.980469 800.605469 C 209.34375 796.332031 209.949219 796.1875 216.070312 799.394531 C 219.890625 801.398438 224.890625 803.898438 227.175781 804.953125 C 232.160156 807.253906 237.910156 815.769531 235.863281 817.820312 Z M 221.566406 816.640625 C 221.566406 815.042969 220.261719 813.738281 218.667969 813.738281 C 217.070312 813.738281 215.765625 815.042969 215.765625 816.640625 C 215.765625 818.234375 217.070312 819.539062 218.667969 819.539062 C 220.261719 819.539062 221.566406 818.234375 221.566406 816.640625 Z M 76.492188 673.019531 C 74.894531 672.035156 73.589844 672.609375 73.589844 674.300781 C 73.589844 675.988281 74.894531 677.371094 76.492188 677.371094 C 78.085938 677.371094 79.394531 676.796875 79.394531 676.09375 C 79.394531 675.390625 78.085938 674.007812 76.492188 673.019531 Z M 682.894531 719.445312 C 682.894531 721.835938 683.980469 723.796875 685.3125 723.796875 C 686.640625 723.796875 687.726562 721.835938 687.726562 719.445312 C 687.726562 717.050781 686.640625 715.089844 685.3125 715.089844 C 683.980469 715.089844 682.894531 717.050781 682.894531 719.445312 Z M 682.894531 719.445312 " fill-opacity="1" fill-rule="nonzero"/></svg>