<svg xmlns="http://www.w3.org/2000/svg" width="644" height="335" viewBox="0 0 644 335" fill="none">
<path d="M442.605 117.996L409.235 132.674C407.45 133.464 405.324 132.744 404.48 131.073L402.343 126.811C401.499 125.14 402.268 123.149 404.052 122.359L437.422 107.681C439.207 106.891 441.333 107.611 442.177 109.282L444.314 113.544C445.158 115.225 444.389 117.216 442.605 117.996Z" stroke="#fff" stroke-width="4" stroke-miterlimit="10" stroke-linecap="round"/>
<path d="M453.741 142.044L437.414 110.208L411 122.084L427.327 153.92L437.628 207.186C441.015 213.799 449.488 216.581 456.54 213.409L485.059 200.583C492.122 197.411 495.092 189.477 491.705 182.874L453.741 142.044Z" stroke="#fff" stroke-width="4" stroke-miterlimit="10" stroke-linecap="round"/>
<path d="M433.789 187.231C433.789 187.231 439.239 178.967 453.728 179.437C468.217 179.907 470.653 167.551 470.653 167.551" stroke="#fff" stroke-width="4" stroke-miterlimit="10" stroke-linecap="round"/>
<path d="M47.7766 115.385L22.8737 107.465C20.2422 106.631 18.8373 103.953 19.7288 101.489C20.6202 99.025 23.4799 97.7095 26.1042 98.5442L51.0071 106.464C53.6386 107.298 55.0435 109.976 54.1521 112.433C53.2607 114.904 50.4081 116.226 47.7766 115.385Z" stroke="#fff" stroke-width="3" stroke-miterlimit="10"/>
<path d="M44.5032 124.413L19.6003 116.493C16.9688 115.658 15.5639 112.981 16.4553 110.524C17.3467 108.06 20.2064 106.744 22.8379 107.579L47.7408 115.492C50.3723 116.326 51.7772 119.004 50.8858 121.468C49.9872 123.932 47.1346 125.247 44.5032 124.413Z" stroke="#fff" stroke-width="3" stroke-miterlimit="10"/>
<path d="M22.3673 74.1916C22.3959 74.2717 22.4172 74.3452 22.4458 74.4253C23.002 76.088 26.2825 86.625 24.9132 98.3172L51.6275 106.57C57.9602 96.4141 67.2952 89.7834 68.7999 88.7551C68.8712 88.7083 68.9426 88.6616 69.0068 88.6149C69.7342 88.1274 70.4401 87.6066 71.1248 87.0523C75.1469 83.8004 78.3132 79.5202 80.096 74.4587C85.3519 59.5547 76.7087 43.4821 60.7914 38.5609C44.8741 33.6396 27.7087 41.7327 22.4529 56.6367C20.6629 61.7048 20.4846 66.9066 21.6542 71.7611C21.8539 72.5757 22.0892 73.3903 22.3673 74.1916Z" stroke="#fff" stroke-width="3" stroke-miterlimit="10"/>
<path d="M20.9623 117.041C20.6628 121.982 23.9147 126.69 29.1777 128.319C34.3694 129.921 39.8962 128.018 42.8344 123.992L20.9623 117.041Z" stroke="#fff" stroke-width="3" stroke-miterlimit="10"/>
<path d="M33.2783 100.768L41.2156 78.2448C42.0001 76.0279 40.7093 73.6374 38.3416 72.9029C35.974 72.1683 33.421 73.377 32.6365 75.5939C31.852 77.8108 33.1429 80.2013 35.5105 80.9358L45.038 83.8806" stroke="#fff" stroke-width="3" stroke-miterlimit="10"/>
<path d="M43.7473 104.006L51.6846 81.4834C52.469 79.2665 55.0221 78.0645 57.3897 78.7924C59.7573 79.5269 61.041 81.9174 60.2637 84.1343C59.4792 86.3512 56.9262 87.5532 54.5586 86.8253L45.031 83.8806" stroke="#fff" stroke-width="3" stroke-miterlimit="10"/>
<path d="M85.7371 82.2179L93.7813 84.7086" stroke="#fff" stroke-width="3" stroke-miterlimit="10" stroke-linecap="round"/>
<path d="M89.4241 72.7293L97.8035 71.5474" stroke="#fff" stroke-width="3" stroke-miterlimit="10" stroke-linecap="round"/>
<path d="M80.1104 90.3577L86.0865 95.98" stroke="#fff" stroke-width="3" stroke-miterlimit="10" stroke-linecap="round"/>
<path d="M11.0211 59.1273L2.97693 56.6433" stroke="#fff" stroke-width="3" stroke-miterlimit="10" stroke-linecap="round"/>
<path d="M14.0949 49.4451L8.11877 43.8227" stroke="#fff" stroke-width="3" stroke-miterlimit="10" stroke-linecap="round"/>
<path d="M10.3721 68.8029L1.99988 69.9848" stroke="#fff" stroke-width="3" stroke-miterlimit="10" stroke-linecap="round"/>
<path d="M283.654 257.718L248.997 265.21L247.439 258.884C247.081 257.418 248.051 255.959 249.616 255.617L278.607 249.347C280.172 249.012 281.731 249.92 282.096 251.386L283.654 257.718Z" stroke="#fff" stroke-width="3" stroke-miterlimit="10" stroke-linecap="round"/>
<path d="M272.263 223.703C287.539 212.17 289.938 191.225 277.621 176.922C265.304 162.618 242.935 160.372 227.659 171.905C212.384 183.438 209.985 204.382 222.302 218.686C234.619 232.989 256.987 235.235 272.263 223.703Z" stroke="#fff" stroke-width="3" stroke-miterlimit="10"/>
<path d="M266.497 227.236L233.362 168.381L229.223 161.239C207.623 171.9 199.346 196.936 210.732 217.162C222.118 237.388 248.856 245.137 270.457 234.476L266.408 227.285" stroke="#fff" stroke-width="3" stroke-miterlimit="10" stroke-linecap="round" stroke-linejoin="round"/>
<path d="M240.665 181.278C251.513 175.922 258.677 168.685 256.666 165.114C254.655 161.543 244.231 162.99 233.383 168.345C222.534 173.701 215.37 180.937 217.381 184.508C219.392 188.08 229.816 186.633 240.665 181.278Z" stroke="#fff" stroke-width="3" stroke-miterlimit="10"/>
<path d="M243.211 230.469C250.869 231.851 259.064 230.909 266.498 227.236C273.931 223.564 279.397 217.769 282.506 211.074C274.849 209.692 266.654 210.634 259.22 214.306C251.779 217.979 246.321 223.774 243.211 230.469Z" stroke="#fff" stroke-width="3" stroke-miterlimit="10"/>
<path d="M266.525 227.2C275.202 222.917 274.817 206.268 265.665 190.015C256.514 173.763 242.06 164.06 233.383 168.343C224.706 172.627 225.091 189.275 234.243 205.528C243.395 221.781 257.848 231.484 266.525 227.2Z" stroke="#fff" stroke-width="3" stroke-miterlimit="10"/>
<path d="M218.501 213.322L281.358 182.296" stroke="#fff" stroke-width="3" stroke-miterlimit="10"/>
<path d="M260.249 238.1L263.917 252.426" stroke="#fff" stroke-width="3" stroke-miterlimit="10"/>
<path d="M244.837 266.543L289.016 256.622" stroke="#fff" stroke-width="3" stroke-miterlimit="10" stroke-linecap="round"/>
<path d="M618.479 224.981L636.969 207.667L585.734 159.693L567.243 177.007L618.479 224.981Z" stroke="#fff" stroke-width="3" stroke-miterlimit="10" stroke-linecap="round" stroke-linejoin="round"/>
<path d="M641.969 229.665L636.964 207.664L618.472 224.978L641.969 229.665Z" stroke="#fff" stroke-width="3" stroke-miterlimit="10" stroke-linecap="round" stroke-linejoin="round"/>
<path d="M639.633 219.4L630.998 227.478" stroke="#fff" stroke-width="3" stroke-miterlimit="10" stroke-linecap="round" stroke-linejoin="round"/>
<path d="M561.795 163.807L571.626 154.602C574.019 152.361 577.893 152.361 580.286 154.602L585.722 159.692L567.231 177.006L561.795 171.916C559.402 169.675 559.402 166.04 561.795 163.807Z" stroke="#fff" stroke-width="3" stroke-miterlimit="10" stroke-linecap="round" stroke-linejoin="round"/>
<path d="M590.719 164.364L572.228 181.685" stroke="#fff" stroke-width="3" stroke-miterlimit="10" stroke-linecap="round" stroke-linejoin="round"/>
<path d="M627.718 216.321L581.474 173.028" stroke="#fff" stroke-width="3" stroke-miterlimit="10" stroke-linecap="round" stroke-linejoin="round"/>
<path d="M90.7451 200.381L60 214.3L121.28 332.974L152.026 319.055L90.7451 200.381Z" stroke="#fff" stroke-width="4" stroke-miterlimit="10" stroke-linecap="round" stroke-linejoin="round"/>
<path d="M98.0816 214.622L82.7163 221.575" stroke="#fff" stroke-width="4" stroke-miterlimit="10" stroke-linecap="round" stroke-linejoin="round"/>
<path d="M112.282 242.115L96.9062 249.079" stroke="#fff" stroke-width="4" stroke-miterlimit="10" stroke-linecap="round" stroke-linejoin="round"/>
<path d="M126.483 269.609L111.107 276.573" stroke="#fff" stroke-width="4" stroke-miterlimit="10" stroke-linecap="round" stroke-linejoin="round"/>
<path d="M140.673 297.113L125.307 304.066" stroke="#fff" stroke-width="4" stroke-miterlimit="10" stroke-linecap="round" stroke-linejoin="round"/>
<path d="M102.783 223.726L95.1005 227.198" stroke="#fff" stroke-width="4" stroke-miterlimit="10" stroke-linecap="round" stroke-linejoin="round"/>
<path d="M107.527 232.921L99.8446 236.403" stroke="#fff" stroke-width="4" stroke-miterlimit="10" stroke-linecap="round" stroke-linejoin="round"/>
<path d="M117.005 251.27L109.322 254.742" stroke="#fff" stroke-width="4" stroke-miterlimit="10" stroke-linecap="round" stroke-linejoin="round"/>
<path d="M121.749 260.465L114.067 263.946" stroke="#fff" stroke-width="4" stroke-miterlimit="10" stroke-linecap="round" stroke-linejoin="round"/>
<path d="M131.227 278.814L123.544 282.285" stroke="#fff" stroke-width="4" stroke-miterlimit="10" stroke-linecap="round" stroke-linejoin="round"/>
<path d="M135.982 288.008L128.289 291.49" stroke="#fff" stroke-width="4" stroke-miterlimit="10" stroke-linecap="round" stroke-linejoin="round"/>
<path d="M274.971 78.1038C298.152 78.1038 316.943 69.7636 316.943 59.4754C316.943 49.1872 298.152 40.8469 274.971 40.8469C251.791 40.8469 233 49.1872 233 59.4754C233 69.7636 251.791 78.1038 274.971 78.1038Z" stroke="#fff" stroke-width="3" stroke-miterlimit="10" stroke-linecap="round" stroke-linejoin="round"/>
<path d="M291.945 69.1856C303.998 50.6478 306.162 31.2829 296.778 25.9331C287.393 20.5832 270.014 31.2742 257.96 49.812C245.907 68.3499 243.743 87.7147 253.127 93.0645C262.512 98.4144 279.891 87.7234 291.945 69.1856Z" stroke="#fff" stroke-width="3" stroke-miterlimit="10" stroke-linecap="round" stroke-linejoin="round"/>
<path d="M296.769 93.0561C306.154 87.7063 303.99 68.3415 291.937 49.8036C279.883 31.2658 262.504 20.5748 253.119 25.9247C243.735 31.2745 245.898 50.6393 257.952 69.1772C270.006 87.715 287.385 98.406 296.769 93.0561Z" stroke="#fff" stroke-width="3" stroke-miterlimit="10" stroke-linecap="round" stroke-linejoin="round"/>
<path d="M274.971 64.4066C277.88 64.4066 280.238 62.1988 280.238 59.4754C280.238 56.752 277.88 54.5442 274.971 54.5442C272.063 54.5442 269.705 56.752 269.705 59.4754C269.705 62.1988 272.063 64.4066 274.971 64.4066Z" stroke="#fff" stroke-width="3" stroke-miterlimit="10" stroke-linecap="round" stroke-linejoin="round"/>
<path d="M600.2 87.621L526.254 66.9379C520.875 65.4354 517.823 60.1355 519.427 55.0997L534.195 8.79178C535.8 3.75601 541.46 0.897708 546.838 2.40022L620.785 23.0833C626.163 24.5858 629.215 29.8857 627.611 34.9214L612.843 81.2294C611.232 86.2593 605.572 89.1235 600.2 87.621Z" stroke="#fff" stroke-width="4" stroke-miterlimit="10" stroke-linecap="round"/>
<path d="M521.17 49.6238L614.585 75.7535" stroke="#fff" stroke-width="4" stroke-miterlimit="10" stroke-linecap="round"/>
<path d="M567.63 70.1254C567.318 71.1021 566.188 71.7022 565.082 71.3925C563.987 71.0857 563.412 70.0284 563.719 69.068C564.031 68.0913 565.161 67.4912 566.267 67.8009C567.362 68.1077 567.937 69.165 567.63 70.1254Z" fill="#4D2C5E" fill-opacity="0.5" stroke="#fff"/>
<path d="M573.707 80.2177L552.763 74.3604L549.941 83.2067L570.885 89.064L573.707 80.2177Z" stroke="#fff" stroke-width="4" stroke-miterlimit="10" stroke-linecap="round"/>
<path d="M542.175 81.5405L578.33 91.6531" stroke="#fff" stroke-width="4" stroke-miterlimit="10" stroke-linecap="round"/>
</svg>