<svg xmlns="http://www.w3.org/2000/svg" xmlns:xlink="http://www.w3.org/1999/xlink" width="1305" zoomAndPan="magnify" viewBox="0 0 978.75 332.999992" height="444" preserveAspectRatio="xMidYMid meet" version="1.0"><defs><clipPath id="3b460bce89"><path d="M 858 187 L 967 187 L 967 329.957031 L 858 329.957031 Z M 858 187 " clip-rule="nonzero"/></clipPath><clipPath id="36b0b19093"><path d="M 561 50.800781 L 696 50.800781 L 696 180 L 561 180 Z M 561 50.800781 " clip-rule="nonzero"/></clipPath><clipPath id="7d6006cefc"><path d="M 594.246094 6.066406 L 620.773438 6.066406 L 620.773438 30 L 594.246094 30 Z M 594.246094 6.066406 " clip-rule="nonzero"/></clipPath><clipPath id="6a48093b6f"><path d="M 550.492188 69 L 571.964844 69 L 571.964844 92 L 550.492188 92 Z M 550.492188 69 " clip-rule="nonzero"/></clipPath></defs><path fill="#ffffff" d="M 35.914062 228.394531 L 35.914062 289.257812 L 11.144531 289.257812 L 11.144531 150.089844 L 35.914062 150.089844 L 35.914062 210.953125 L 110.257812 210.953125 L 110.257812 150.089844 L 135.042969 150.089844 L 135.042969 289.257812 L 110.257812 289.257812 L 110.257812 228.394531 Z M 35.914062 228.394531 " fill-opacity="1" fill-rule="nonzero"/><path fill="#ffffff" d="M 170.722656 289.257812 L 147.128906 289.257812 L 147.128906 189.730469 L 170.722656 189.730469 Z M 159.015625 175.871094 C 155.855469 175.871094 153.113281 174.71875 150.792969 172.40625 C 148.480469 170.085938 147.328125 167.339844 147.328125 164.164062 C 147.328125 160.863281 148.480469 158.089844 150.792969 155.84375 C 153.113281 153.601562 155.855469 152.476562 159.015625 152.476562 C 162.320312 152.476562 165.09375 153.601562 167.339844 155.84375 C 169.59375 158.089844 170.722656 160.863281 170.722656 164.164062 C 170.722656 167.339844 169.59375 170.085938 167.339844 172.40625 C 165.09375 174.71875 162.320312 175.871094 159.015625 175.871094 Z M 159.015625 175.871094 " fill-opacity="1" fill-rule="nonzero"/><path fill="#ffffff" d="M 219.289062 289.257812 L 219.089844 289.0625 L 173.097656 189.730469 L 198.863281 189.730469 L 199.0625 189.929688 L 232.171875 268.238281 L 265.679688 189.730469 L 291.445312 189.730469 L 291.246094 190.128906 L 245.253906 289.257812 Z M 219.289062 289.257812 " fill-opacity="1" fill-rule="nonzero"/><path fill="#ffffff" d="M 289.460938 239.503906 C 289.460938 229.191406 291.671875 220.140625 296.09375 212.347656 C 300.523438 204.546875 306.703125 198.464844 314.628906 194.109375 C 322.5625 189.742188 331.757812 187.558594 342.203125 187.558594 C 357.664062 187.558594 369.957031 192.316406 379.074219 201.835938 C 383.957031 206.855469 387.621094 213.035156 390.066406 220.371094 C 392.507812 227.699219 393.535156 235.53125 393.152344 243.863281 L 393.152344 244.261719 L 314.050781 244.261719 C 314.964844 253.25 318.230469 260.417969 323.847656 265.765625 C 329.472656 271.117188 336.582031 273.789062 345.167969 273.789062 C 356.398438 273.789062 365.316406 269.695312 371.929688 261.503906 L 372.128906 261.304688 L 388.972656 272.796875 L 388.773438 273.195312 C 377.808594 285.097656 363.339844 291.050781 345.367188 291.050781 C 334.394531 291.050781 324.710938 288.867188 316.320312 284.5 C 307.929688 280.136719 301.351562 274.089844 296.589844 266.363281 C 291.835938 258.628906 289.460938 249.675781 289.460938 239.503906 Z M 314.84375 230.78125 L 369.957031 230.78125 C 368.761719 222.851562 365.683594 216.570312 360.722656 211.949219 C 355.769531 207.320312 349.597656 205 342.203125 205 C 334.664062 205 328.445312 207.320312 323.550781 211.949219 C 318.664062 216.570312 315.761719 222.851562 314.84375 230.78125 Z M 314.84375 230.78125 " fill-opacity="1" fill-rule="nonzero"/><path fill="#ffc100" d="M 455.589844 210.953125 L 494.054688 150.089844 L 522.191406 150.089844 L 521.808594 150.6875 L 468.074219 232.160156 L 468.074219 289.257812 L 443.304688 289.257812 L 443.304688 232.558594 L 388.773438 150.089844 L 416.925781 150.089844 L 416.925781 150.289062 Z M 455.589844 210.953125 " fill-opacity="1" fill-rule="nonzero"/><path fill="#ffc100" d="M 574.53125 187.558594 C 585.628906 187.558594 595.40625 189.777344 603.863281 194.207031 C 612.324219 198.628906 618.9375 204.746094 623.691406 212.546875 C 628.453125 220.335938 630.835938 229.257812 630.835938 239.304688 C 630.835938 249.476562 628.453125 258.464844 623.691406 266.261719 C 618.9375 274.054688 612.324219 280.136719 603.863281 284.5 C 595.40625 288.867188 585.628906 291.050781 574.53125 291.050781 C 563.421875 291.050781 553.640625 288.867188 545.1875 284.5 C 536.730469 280.136719 530.085938 274.054688 525.257812 266.261719 C 520.4375 258.464844 518.027344 249.476562 518.027344 239.304688 C 518.027344 229.257812 520.4375 220.335938 525.257812 212.546875 C 530.085938 204.746094 536.730469 198.628906 545.1875 194.207031 C 553.640625 189.777344 563.421875 187.558594 574.53125 187.558594 Z M 574.53125 273.789062 C 584.3125 273.789062 592.109375 270.652344 597.925781 264.375 C 603.738281 258.097656 606.648438 249.742188 606.648438 239.304688 C 606.648438 228.859375 603.738281 220.53125 597.925781 214.320312 C 592.109375 208.109375 584.3125 205 574.53125 205 C 564.75 205 556.914062 208.109375 551.039062 214.320312 C 545.15625 220.53125 542.21875 228.859375 542.21875 239.304688 C 542.21875 249.742188 545.15625 258.097656 551.039062 264.375 C 556.914062 270.652344 564.75 273.789062 574.53125 273.789062 Z M 574.53125 273.789062 " fill-opacity="1" fill-rule="nonzero"/><path fill="#ffc100" d="M 715.46875 242.472656 L 715.46875 189.550781 L 739.0625 189.550781 L 739.0625 289.257812 L 715.46875 289.257812 L 715.46875 272.414062 C 707.015625 284.839844 694.132812 291.050781 676.824219 291.050781 C 672.1875 291.050781 667.527344 290.488281 662.828125 289.359375 C 658.140625 288.230469 653.8125 286.183594 649.847656 283.207031 C 645.890625 280.234375 642.683594 276.042969 640.230469 270.625 C 637.785156 265.210938 636.566406 258.207031 636.566406 249.617188 L 636.566406 189.550781 L 660.160156 189.550781 L 660.160156 246.234375 C 660.160156 253.773438 661.378906 259.527344 663.824219 263.496094 C 666.277344 267.453125 669.347656 270.160156 673.042969 271.617188 C 676.742188 273.070312 680.378906 273.789062 683.953125 273.789062 C 689.101562 273.789062 694.085938 272.671875 698.90625 270.425781 C 703.734375 268.183594 707.703125 264.75 710.8125 260.128906 C 713.914062 255.5 715.46875 249.613281 715.46875 242.472656 Z M 715.46875 242.472656 " fill-opacity="1" fill-rule="nonzero"/><path fill="#ffc100" d="M 812.417969 187.558594 C 817.035156 187.558594 821.6875 188.15625 826.375 189.351562 C 831.074219 190.535156 835.398438 192.613281 839.359375 195.585938 C 843.324219 198.558594 846.53125 202.757812 848.976562 208.183594 C 851.429688 213.601562 852.65625 220.601562 852.65625 229.191406 L 852.65625 289.0625 L 829.0625 289.0625 L 829.0625 232.359375 C 829.0625 224.832031 827.839844 219.121094 825.398438 215.214844 C 822.953125 211.3125 819.882812 208.640625 816.179688 207.191406 C 812.472656 205.730469 808.773438 205 805.070312 205 C 799.917969 205 794.929688 206.195312 790.101562 208.582031 C 785.28125 210.960938 781.351562 214.464844 778.3125 219.09375 C 775.269531 223.714844 773.753906 229.457031 773.753906 236.320312 L 773.753906 289.0625 L 750.160156 289.0625 L 750.160156 189.550781 L 773.753906 189.550781 L 773.753906 206.394531 C 782.074219 193.839844 794.960938 187.558594 812.417969 187.558594 Z M 812.417969 187.558594 " fill-opacity="1" fill-rule="nonzero"/><g clip-path="url(#3b460bce89)"><path fill="#ffc100" d="M 943.054688 189.550781 L 966.628906 189.550781 L 966.628906 288.265625 C 966.628906 296.851562 964.410156 304.316406 959.980469 310.664062 C 955.558594 317.007812 949.386719 321.929688 941.460938 325.4375 C 933.535156 328.9375 924.152344 330.691406 913.308594 330.691406 C 894.273438 330.691406 879.273438 324.746094 868.3125 312.851562 L 867.914062 312.453125 L 868.3125 312.253906 L 883.765625 301.148438 L 883.960938 301.347656 C 887.132812 305.179688 891.328125 308.121094 896.546875 310.167969 C 901.773438 312.222656 907.558594 313.25 913.90625 313.25 C 923.023438 313.25 930.15625 311 935.308594 306.503906 C 940.46875 302.015625 943.054688 295.734375 943.054688 287.667969 L 943.054688 272.796875 C 934.984375 284.964844 923.015625 291.050781 907.15625 291.050781 C 892.886719 291.050781 881.195312 286.160156 872.074219 276.378906 C 862.957031 266.726562 858.398438 254.304688 858.398438 239.105469 C 858.398438 229.058594 860.472656 220.171875 864.628906 212.445312 C 868.796875 204.710938 874.546875 198.628906 881.875 194.207031 C 889.210938 189.777344 897.640625 187.558594 907.15625 187.558594 C 923.015625 187.558594 934.984375 193.707031 943.054688 205.996094 Z M 912.710938 273.789062 C 921.964844 273.789062 929.328125 270.652344 934.8125 264.375 C 940.304688 258.097656 943.054688 249.742188 943.054688 239.304688 C 943.054688 228.859375 940.304688 220.53125 934.8125 214.320312 C 929.328125 208.109375 921.964844 205 912.710938 205 C 903.59375 205 896.289062 208.109375 890.808594 214.320312 C 885.328125 220.53125 882.585938 228.859375 882.585938 239.304688 C 882.585938 249.742188 885.328125 258.097656 890.808594 264.375 C 896.289062 270.652344 903.59375 273.789062 912.710938 273.789062 Z M 912.710938 273.789062 " fill-opacity="1" fill-rule="nonzero"/></g><g clip-path="url(#36b0b19093)"><path fill="#ffc100" d="M 664.308594 105.933594 C 663.519531 110.152344 662.566406 113.921875 662.148438 117.757812 C 661.328125 125.300781 658.769531 132.238281 654.628906 138.5 C 651.390625 143.394531 647.15625 145.257812 643.925781 142.585938 C 642.996094 141.816406 642.3125 141.09375 641.816406 140.027344 C 634.378906 124.046875 626.867188 108.082031 619.421875 92.089844 C 618.515625 90.152344 617.90625 88.085938 617.167969 86.078125 C 616.878906 85.308594 617.09375 84.117188 615.789062 84.136719 C 614.398438 84.160156 614.140625 85.328125 614.101562 86.296875 C 613.886719 91.371094 612.773438 96.347656 612.449219 101.367188 C 611.625 114.390625 609.84375 127.339844 609.90625 140.421875 C 609.925781 144.542969 608.730469 148.6875 607.855469 152.773438 C 607.253906 155.585938 605.339844 157.335938 602.40625 158.007812 C 599.4375 158.675781 597.617188 157.257812 595.882812 155.097656 C 589.769531 147.472656 583.542969 139.917969 577.289062 132.414062 C 576.648438 131.644531 576.25 129.957031 574.828125 130.453125 C 573.339844 130.972656 573.695312 132.585938 573.746094 133.800781 C 574.15625 147.242188 573.480469 160.65625 572.777344 174.074219 C 572.625 176.964844 571.863281 179.347656 568.378906 179.71875 C 565.339844 180.046875 563.875 179.234375 563.449219 175.746094 C 560.859375 154.792969 562.101562 133.730469 561.167969 112.726562 C 561.03125 109.535156 562.199219 106.640625 565.257812 105.101562 C 568.472656 103.46875 571.199219 104.808594 573.664062 107.011719 C 580.722656 113.292969 587.117188 120.140625 592.976562 127.515625 C 593.640625 128.34375 594.140625 129.753906 595.5625 129.449219 C 597.179688 129.09375 597.074219 127.625 597.148438 126.359375 C 598.183594 108.546875 601.242188 90.964844 603.246094 73.257812 C 603.875 67.699219 605.445312 62.140625 607.550781 56.820312 C 608.730469 53.828125 610.054688 51.175781 613.789062 50.996094 C 617.574219 50.824219 619.328125 53.765625 620.621094 56.320312 C 629.957031 74.898438 638.34375 93.894531 646.34375 113.0625 C 646.90625 114.390625 647.292969 115.964844 648.621094 116.925781 C 650.167969 116.238281 650.664062 114.828125 650.703125 113.480469 C 650.832031 108.628906 652.152344 103.96875 652.941406 99.238281 C 654.160156 91.917969 656.011719 84.71875 659.851562 78.175781 C 660.996094 76.25 662.585938 74.800781 664.492188 73.742188 C 667.765625 71.917969 671.804688 73.347656 672.929688 76.898438 C 675.285156 84.339844 677.28125 91.890625 679.613281 99.339844 C 682.800781 109.542969 685.484375 119.910156 688.203125 130.222656 C 690.308594 138.222656 692.992188 146.121094 694.4375 154.347656 C 695.089844 158.078125 696.0625 161.730469 695.914062 165.542969 C 695.773438 169.050781 693.089844 172.246094 689.816406 172.878906 C 686.011719 173.605469 684.449219 171.433594 682.917969 168.382812 C 679.65625 161.871094 678.480469 154.753906 676.320312 147.949219 C 673.6875 139.664062 672.128906 131.105469 669.484375 122.796875 C 668.394531 119.328125 667.804688 115.6875 667.210938 112.101562 C 666.777344 109.941406 666.179688 107.980469 664.308594 105.933594 Z M 664.308594 105.933594 " fill-opacity="1" fill-rule="nonzero"/></g><g clip-path="url(#7d6006cefc)"><path fill="#ffc100" d="M 609.148438 6.078125 C 615.847656 6.25 620.234375 10.652344 620.050781 17.054688 C 619.875 24.347656 613.394531 30.15625 605.777344 29.875 C 599.441406 29.652344 594.855469 25.324219 594.984375 19.730469 C 595.191406 12.335938 601.863281 5.878906 609.148438 6.078125 Z M 609.148438 6.078125 " fill-opacity="1" fill-rule="nonzero"/></g><g clip-path="url(#6a48093b6f)"><path fill="#ffc100" d="M 561.78125 69.109375 C 567.644531 69.007812 571.785156 73.265625 571.828125 79.414062 C 571.855469 84.660156 565.90625 91.480469 561.269531 91.511719 C 556.320312 91.523438 550.773438 86.242188 550.503906 81.238281 C 550.203125 75.84375 556.40625 69.1875 561.78125 69.109375 Z M 561.78125 69.109375 " fill-opacity="1" fill-rule="nonzero"/></g><path fill="#ffc100" d="M 669.761719 43.945312 C 669.65625 49.042969 664.585938 53.777344 659.246094 53.777344 C 654.527344 53.777344 649.335938 49.335938 649.5 45.429688 C 649.703125 40.582031 655.203125 35.398438 660.097656 35.386719 C 665.75 35.371094 669.871094 39.015625 669.761719 43.945312 Z M 669.761719 43.945312 " fill-opacity="1" fill-rule="nonzero"/></svg>