<?xml version="1.0" standalone="no"?>
<!DOCTYPE svg PUBLIC "-//W3C//DTD SVG 20010904//EN"
 "http://www.w3.org/TR/2001/REC-SVG-20010904/DTD/svg10.dtd">
<svg version="1.0" xmlns="http://www.w3.org/2000/svg"
 width="686.000000pt" height="204.000000pt" viewBox="0 0 686.000000 204.000000"
 preserveAspectRatio="xMidYMid meet">

<g transform="translate(0.000000,204.000000) scale(0.100000,-0.100000)"
fill="#FFFFFF" stroke="none">
<!-- tribu dot, b, tri, bar, u -->
<path class="logo-tribu" d="M1999 2007 c-78 -52 -102 -140 -56 -208 60 -91 194 -90 255 1 20 30
23 43 18 90 -4 49 -10 60 -50 98 -39 36 -51 42 -89 42 -29 0 -55 -8 -78 -23z"/>
<path class="logo-tribu" d="M2413 2013 c-60 -8 -58 8 -58 -512 0 -528 2 -553 69 -691 65 -135
236 -263 391 -291 258 -47 528 123 622 393 33 93 35 229 4 325 -72 231 -268
384 -512 400 -96 6 -150 -6 -174 -40 -28 -41 -16 -188 18 -209 7 -4 53 -8 103
-8 56 0 108 -6 137 -16 102 -35 185 -148 194 -266 13 -170 -131 -328 -299
-329 -90 -1 -154 28 -218 98 -84 92 -83 87 -89 635 -5 422 -8 479 -22 493 -17
17 -106 27 -166 18z"/>
<path class="logo-tribu" d="M255 1855 c-22 -21 -25 -33 -25 -100 0 -67 -3 -79 -25 -100 -21 -22
-33 -25 -90 -25 -94 0 -105 -13 -105 -130 0 -116 11 -130 104 -130 48 0 70 -5
87 -19 24 -19 24 -21 30 -283 6 -302 12 -332 94 -425 173 -197 512 -154 706
89 88 111 171 329 194 515 8 63 27 94 47 75 10 -10 14 -96 18 -387 6 -443 -4
-410 125 -410 74 0 87 3 107 23 23 22 23 24 20 255 -2 137 1 261 8 301 21 133
81 217 180 253 72 26 80 41 80 148 0 102 -10 125 -55 125 -29 0 -129 -37 -203
-74 -28 -14 -54 -26 -56 -26 -3 0 -28 20 -55 44 -65 58 -105 71 -226 71 -194
0 -212 -19 -231 -248 -16 -198 -34 -275 -89 -392 -73 -157 -176 -245 -270
-231 -32 5 -51 15 -69 36 -39 47 -48 114 -44 328 4 241 -2 232 153 232 143 0
150 6 149 129 -1 124 -2 125 -149 131 -145 6 -148 9 -156 127 -7 114 -17 123
-141 123 -81 0 -91 -2 -113 -25z"/>
<path class="logo-tribu" d="M1979 1619 c-15 -5 -30 -20 -33 -32 -3 -12 -6 -245 -6 -518 0 -594
-12 -544 129 -544 69 0 94 4 106 16 14 14 16 74 15 535 0 449 -2 521 -15 534
-19 18 -156 25 -196 9z"/>
<path class="logo-tribu" d="M3647 1623 c-41 -11 -47 -49 -47 -305 0 -266 10 -380 41 -476 52
-158 215 -294 387 -324 64 -11 78 -10 159 11 136 36 141 36 185 11 33 -19 51
-22 115 -18 60 3 78 7 89 23 12 16 14 107 14 529 0 281 -4 516 -8 523 -18 28
-135 44 -198 27 -40 -11 -44 -42 -44 -323 0 -148 -5 -293 -10 -322 -14 -75
-56 -137 -114 -174 -43 -26 -59 -30 -120 -30 -122 1 -189 56 -222 185 -13 52
-17 119 -18 340 -1 151 -5 283 -9 292 -5 9 -22 21 -39 27 -30 11 -126 13 -161
4z"/>

<!-- US part and curve - START WHITE, ANIMATE TO GREEN -->
<path class="logo-us" d="M6159 1630 c-44 -13 -79 -42 -99 -80 -11 -21 -42 -116 -70 -211 -50
-169 -135 -397 -166 -444 -21 -32 -46 -40 -61 -19 -10 14 -13 99 -13 364 0
283 -3 350 -14 366 -12 16 -29 20 -103 22 -138 5 -127 32 -134 -340 -5 -292
-7 -317 -28 -370 -27 -69 -69 -112 -129 -133 -126 -43 -254 13 -309 134 -14
30 -18 91 -23 361 -4 179 -8 326 -8 327 -1 1 -19 7 -39 12 -57 16 -141 13
-173 -5 -27 -17 -28 -19 -35 -137 -9 -162 3 -507 21 -581 71 -291 389 -459
654 -345 l51 22 40 -23 c114 -64 327 -18 444 96 62 60 118 181 207 448 38 116
76 218 84 226 13 13 17 13 32 -6 9 -12 73 -88 142 -170 69 -82 135 -165 147
-184 47 -77 39 -167 -17 -190 -44 -18 -83 -4 -150 56 -65 58 -90 65 -139 39
-38 -19 -98 -91 -106 -125 -27 -125 193 -247 394 -219 123 18 209 77 258 177
26 52 28 66 28 172 0 113 -1 117 -37 191 -46 94 -120 195 -269 364 -114 130
-164 180 -203 202 -23 14 -136 16 -177 3z" fill="#FFFFFF"/>
<path class="logo-curve" d="M5218 387 c-24 -18 -52 -49 -62 -68 -18 -34 -18 -36 -1 -73 38 -79
223 -187 379 -221 105 -23 309 -16 413 14 136 39 260 112 308 180 45 66 29
116 -53 171 -59 39 -89 38 -148 -5 -81 -58 -156 -93 -237 -109 -172 -36 -272
-11 -441 109 -63 45 -100 46 -158 2z" fill="#FFFFFF"/>
</g>
</svg>
